<svg width="560" height="281" viewBox="0 0 560 281" fill="none" xmlns="http://www.w3.org/2000/svg">
<g clip-path="url(#clip0_224_1381)">
<path d="M184.419 281C167.522 281 150.649 280.697 133.802 280.092C109.73 279.226 84.8379 278.332 61.7016 265.487C45.5168 256.503 31.1827 242.088 20.2493 223.8C12.9415 211.405 7.58317 197.957 4.36241 183.93C-1.64553 158.392 -1.44089 131.783 4.95912 106.341C7.20193 97.6176 10.2938 89.1355 14.1903 81.0163C31.0627 46.0429 61.8365 22.5661 98.6215 16.6063C98.9253 16.5668 99.2325 16.5603 99.5377 16.5867C99.7031 16.5956 99.868 16.6051 100.036 16.598L100.253 16.5292C100.807 16.3361 101.377 16.1897 101.956 16.0915C158.689 7.63743 218.663 24.7429 275.39 65.5574C319.253 97.1194 377.382 114.115 453.101 117.515L454.176 117.572C475.254 118.784 495.644 127.482 513.141 142.729C530.412 157.776 543.38 177.853 550.642 200.789C551.535 203.585 552.353 206.496 553.075 209.44C553.746 212.175 553.699 215.039 552.937 217.751C552.175 220.463 550.725 222.932 548.728 224.916V224.922L548.539 225.116C548.086 225.568 547.608 226.001 547.12 226.405L546.545 226.878C541.706 230.868 537.885 234.02 533.31 236.468C530.26 238.09 527.015 239.316 523.655 240.117C505.203 244.62 486.465 248.795 467.961 252.527C432.025 259.779 395.143 265.762 358.338 270.309C300.638 277.431 242.556 281.001 184.419 281ZM99.1075 17.8254C98.9945 17.8243 98.8815 17.832 98.7697 17.8483C62.3286 23.7525 31.8461 46.9987 15.1411 81.626C11.283 89.6646 8.22168 98.0627 6.00118 106.699C-0.34052 131.916 -0.542612 158.289 5.41189 183.6C8.60112 197.493 13.9075 210.812 21.1447 223.089C31.9711 241.197 46.1587 255.467 62.1738 264.357C85.1023 277.087 109.877 277.977 133.836 278.838C208.772 281.518 283.802 278.249 358.222 269.063C395.003 264.519 431.861 258.54 467.773 251.291C486.265 247.563 504.99 243.391 523.429 238.891C526.709 238.109 529.875 236.913 532.852 235.331C537.334 232.933 541.12 229.811 545.912 225.859L546.486 225.385C546.906 225.038 547.318 224.667 547.713 224.282L547.826 224.163C551.764 220.189 553.296 214.947 552.028 209.781V209.78C551.314 206.867 550.505 203.988 549.621 201.22C534.786 154.367 496.408 121.255 454.124 118.824L453.055 118.768C418.467 117.214 388.201 112.911 360.529 105.61C327.496 96.8959 298.658 83.7777 274.814 66.6207C218.303 25.9626 158.579 8.92079 102.095 17.3347C101.567 17.4258 101.048 17.5606 100.543 17.7375L100.153 17.8468C99.9311 17.8567 99.7091 17.8541 99.4877 17.8388C99.3573 17.8321 99.231 17.8254 99.1075 17.8254Z" fill="#F0F0F0"/>
<path d="M174.921 91.5532C173.356 90.0509 171.756 81.6732 169.759 80.8227C171.252 84.1253 170.168 84.9997 170.16 88.6242C170.179 90.6822 169.939 92.7345 169.445 94.7325H135.614V68.3039C135.614 65.9292 136.081 63.5778 136.989 61.3839C137.897 59.1899 139.228 57.1965 140.905 55.5173C142.583 53.8382 144.574 52.5062 146.766 51.5975C148.958 50.6888 151.307 50.2211 153.679 50.2212C154.585 50.2389 155.484 50.3707 156.357 50.6136C159.265 51.3994 161.915 52.9369 164.042 55.0717C166.169 57.2066 167.698 59.8637 168.475 62.7766C171.054 72.2128 175.156 87.92 174.921 91.5532Z" fill="#2F2E41"/>
<path d="M137.6 124.065L137.616 103.466L125.519 104.548L129.788 117.54L127.79 150.196C126.821 150.414 125.936 150.909 125.244 151.621C124.551 152.334 124.08 153.232 123.889 154.208C123.698 155.183 123.794 156.194 124.166 157.115C124.539 158.037 125.171 158.83 125.986 159.398C126.801 159.967 127.763 160.285 128.756 160.315C129.749 160.345 130.729 160.086 131.577 159.568C132.424 159.05 133.103 158.297 133.531 157.399C133.958 156.502 134.116 155.499 133.984 154.514L137.6 124.065Z" fill="#FFB6B6"/>
<path d="M161.407 271.27L166.294 271.269L168.619 252.4H161.405L161.407 271.27Z" fill="#FFB6B6"/>
<path d="M159.751 268.857L167.477 268.395V271.708L174.822 276.786C175.185 277.037 175.458 277.397 175.602 277.814C175.746 278.231 175.753 278.684 175.622 279.105C175.49 279.526 175.228 279.895 174.873 280.156C174.518 280.418 174.088 280.559 173.647 280.559H164.45L162.864 277.281L162.245 280.559H158.777L159.751 268.857Z" fill="#2F2E41"/>
<path d="M133.148 271.27L138.036 271.269L140.36 252.4H133.147L133.148 271.27Z" fill="#FFB6B6"/>
<path d="M131.493 268.857L139.218 268.395V271.708L146.564 276.786C146.926 277.037 147.2 277.397 147.343 277.814C147.487 278.231 147.494 278.684 147.363 279.105C147.232 279.526 146.969 279.895 146.614 280.156C146.259 280.418 145.83 280.559 145.389 280.559H136.191L134.606 277.281L133.987 280.559H130.519L131.493 268.857Z" fill="#2F2E41"/>
<path d="M157.054 81.2202L146.93 81.4189L139.783 88.97L134.054 89.8111C131.462 90.1916 129.079 91.451 127.304 93.3789C125.528 95.3068 124.467 97.7862 124.299 100.403L125.291 105.86H131.247L134.692 126.109C133.353 129.526 133.261 132.223 136.011 133.283L144.548 149.378L169.759 138.052C171.038 135.851 171.447 133.641 170.141 131.492L171.943 100.495H178.003C178.003 94.6978 176.044 89.8103 170.288 89.1652C168.002 88.9176 165.706 88.7861 163.407 88.7712L157.054 81.2202Z" fill="#E6E6E6"/>
<path d="M169.759 138.052C169.759 138.052 145.143 142.423 136.012 133.283C136.012 133.283 135.084 134.858 133.687 137.471C133.286 138.222 132.51 138.731 132.041 139.641C131.615 140.469 130.52 141.486 130.056 142.424C129.683 143.178 130.282 144.165 129.893 144.98C125.217 154.799 119.753 168.649 120.924 177.794C121.68 183.692 123.24 197.415 124.883 212.155C125.011 213.307 123.972 214.786 124.101 215.947C124.222 217.041 125.513 217.817 125.634 218.914C125.715 219.643 124.814 220.386 124.895 221.113C124.983 221.911 126.053 222.694 126.141 223.489C128.392 243.841 130.453 262.843 130.453 262.843H141.967L144.14 219.446L142.364 203.627L146.533 171.634L152.29 202.037L153.031 219.148L159.115 263.637H169.759V220.569L170.553 218.331L169.759 215.462L170.553 212.37L169.759 209.003V138.052Z" fill="#2F2E41"/>
<path d="M160.162 75.3431C158.594 77.4284 156.363 78.917 153.837 79.5636C151.31 80.2102 148.639 79.9762 146.263 78.9003C143.888 77.8244 141.949 75.9707 140.766 73.6444C139.583 71.3181 139.227 68.658 139.757 66.1021C140.286 63.5463 141.669 61.2471 143.678 59.5832C145.687 57.9194 148.203 56.99 150.81 56.9482C153.417 56.9065 155.961 57.7548 158.023 59.3534C160.084 60.9521 161.54 63.2058 162.151 65.7434C162.184 65.8811 162.212 66.018 162.239 66.1601C162.561 67.7507 162.543 69.3917 162.185 70.9746C161.827 72.5576 161.138 74.0466 160.162 75.3431Z" fill="#FFB6B6"/>
<path d="M157.77 68.7889C157.526 67.5658 156.91 66.4482 156.007 65.5896C156.096 66.7616 155.934 67.9392 155.53 69.0432C152.512 69.3108 149.48 68.7096 146.792 67.3105C144.767 65.9354 142.19 66.0546 139.188 67.3105C139.188 65.8491 139.476 64.402 140.034 63.0518C140.593 61.7016 141.412 60.4748 142.444 59.4415C143.476 58.4081 144.702 57.5885 146.051 57.0293C147.4 56.4701 148.845 56.1824 150.305 56.1826H152.291C155.239 56.1832 158.066 57.3557 160.151 59.4425C162.236 61.5292 163.407 64.3594 163.408 67.3105C161.575 67.9683 159.689 68.463 157.77 68.7889Z" fill="#2F2E41"/>
<path d="M70.9189 210.617C88.5574 210.617 102.856 196.304 102.856 178.648C102.856 160.993 88.5574 146.68 70.9189 146.68C53.2803 146.68 38.9814 160.993 38.9814 178.648C38.9814 196.304 53.2803 210.617 70.9189 210.617Z" fill="#F0F0F0"/>
<path d="M274.442 63.9374C292.081 63.9374 306.38 49.6245 306.38 31.9687C306.38 14.3129 292.081 0 274.442 0C256.804 0 242.505 14.3129 242.505 31.9687C242.505 49.6245 256.804 63.9374 274.442 63.9374Z" fill="#F0F0F0"/>
<path d="M528.062 215.632C545.701 215.632 560 201.319 560 183.664C560 166.008 545.701 151.695 528.062 151.695C510.424 151.695 496.125 166.008 496.125 183.664C496.125 201.319 510.424 215.632 528.062 215.632Z" fill="#F0F0F0"/>
<path d="M332.054 35.4552V107.946C332.054 109.452 331.461 110.897 330.403 111.968C329.345 113.038 327.908 113.647 326.404 113.663C326.383 113.665 326.362 113.666 326.341 113.665H317.912C311.168 113.665 304.7 110.984 299.931 106.21C295.162 101.437 292.483 94.9624 292.483 88.2117V35.4552C292.483 33.9385 293.085 32.4838 294.157 31.4114C295.228 30.3389 296.681 29.7363 298.197 29.7363H301.612C300.03 34.3565 321.504 36.3017 322.683 29.7363H326.341C327.856 29.7363 329.31 30.3389 330.381 31.4114C331.452 32.4839 332.054 33.9385 332.054 35.4552Z" fill="#8B5CF6"/>
<path d="M307.041 24.3154C307.041 24.1167 307.12 23.9262 307.261 23.7857C307.401 23.6452 307.591 23.5662 307.79 23.5659H312.881C313.079 23.5665 313.269 23.6457 313.409 23.7862C313.549 23.9267 313.628 24.117 313.628 24.3154C313.628 24.5138 313.549 24.7041 313.409 24.8446C313.269 24.9851 313.079 25.0643 312.881 25.0649H307.79C307.591 25.0646 307.401 24.9856 307.261 24.8451C307.12 24.7046 307.041 24.5141 307.041 24.3154Z" fill="#3F3D56"/>
<path d="M328.091 122.86H295.893C293.395 122.857 291 121.863 289.233 120.095C287.467 118.327 286.473 115.929 286.47 113.429V62.7546C286.294 62.6275 286.15 62.46 286.05 62.2661C285.951 62.0722 285.9 61.8574 285.9 61.6396V56.5431C285.9 56.3253 285.951 56.1105 286.05 55.9167C286.15 55.7228 286.294 55.5554 286.47 55.4284V54.0606C286.294 53.9336 286.15 53.7662 286.05 53.5723C285.951 53.3784 285.9 53.1637 285.9 52.9459V47.8491C285.9 47.6313 285.951 47.4165 286.05 47.2227C286.15 47.0288 286.294 46.8614 286.47 46.7344V44.2623C286.252 44.1449 286.07 43.9704 285.943 43.7573C285.816 43.5442 285.749 43.3007 285.75 43.0526V37.9562C285.749 37.7082 285.816 37.4646 285.943 37.2514C286.07 37.0383 286.252 36.8637 286.47 36.7463V29.9723C286.473 27.4718 287.467 25.0746 289.233 23.3065C291 21.5384 293.395 20.5438 295.893 20.541H328.091C330.589 20.5438 332.984 21.5384 334.75 23.3065C336.516 25.0746 337.51 27.4719 337.513 29.9723V44.7382C337.682 44.8445 337.822 44.9921 337.919 45.1674C338.016 45.3426 338.067 45.5396 338.067 45.74V55.4578C338.067 55.6582 338.016 55.8553 337.919 56.0305C337.822 56.2058 337.682 56.3535 337.513 56.4599V113.429C337.51 115.929 336.516 118.327 334.75 120.095C332.984 121.863 330.589 122.857 328.091 122.86ZM295.893 21.7947C293.727 21.7971 291.65 22.6595 290.119 24.1925C288.587 25.7256 287.725 27.8042 287.723 29.9723V37.8127L287.12 37.836C287.089 37.8371 287.059 37.8502 287.038 37.8726C287.016 37.8949 287.003 37.9249 287.002 37.9563V43.0526C287.003 43.084 287.016 43.1139 287.038 43.1362C287.06 43.1586 287.089 43.1717 287.12 43.1729L287.723 43.1959V47.6146L287.246 47.7322C287.22 47.7385 287.197 47.7535 287.179 47.7746C287.162 47.7958 287.153 47.822 287.152 47.8491V52.9458C287.153 52.973 287.162 52.9992 287.179 53.0203C287.197 53.0415 287.22 53.0564 287.246 53.0628L287.723 53.1803V56.3086L287.246 56.4262C287.22 56.4325 287.197 56.4475 287.179 56.4686C287.162 56.4898 287.153 56.516 287.152 56.5431V61.6395C287.153 61.6667 287.162 61.693 287.179 61.7142C287.196 61.7354 287.22 61.7503 287.246 61.7567L287.723 61.8743V113.429C287.725 115.597 288.587 117.676 290.119 119.209C291.65 120.742 293.727 121.604 295.893 121.607H328.091C330.257 121.604 332.333 120.742 333.865 119.209C335.396 117.676 336.258 115.597 336.26 113.429V55.3865H336.815V45.8116H336.26V29.9723C336.258 27.8042 335.396 25.7256 333.865 24.1926C332.333 22.6595 330.257 21.7972 328.091 21.7947L295.893 21.7947Z" fill="#3F3D56"/>
<path d="M315.727 25.0649C316.141 25.0649 316.476 24.7293 316.476 24.3154C316.476 23.9015 316.141 23.5659 315.727 23.5659C315.314 23.5659 314.979 23.9015 314.979 24.3154C314.979 24.7293 315.314 25.0649 315.727 25.0649Z" fill="#3F3D56"/>
<path d="M152.849 169.498H69.0681C67.8783 169.495 66.7381 169.021 65.8968 168.179C65.0554 167.337 64.5813 166.196 64.5781 165.005V124.142C64.5812 122.951 65.0551 121.81 65.8964 120.967C66.7376 120.125 67.8777 119.651 69.0675 119.647H152.848C154.038 119.651 155.178 120.125 156.019 120.967C156.861 121.809 157.335 122.95 157.338 124.141V165.004C157.335 166.195 156.861 167.336 156.02 168.179C155.179 169.021 154.039 169.495 152.849 169.498Z" fill="white"/>
<path d="M152.849 169.498H69.0681C67.8783 169.495 66.7381 169.021 65.8968 168.179C65.0554 167.337 64.5813 166.196 64.5781 165.005V124.142C64.5812 122.951 65.0551 121.81 65.8964 120.967C66.7376 120.125 67.8777 119.651 69.0675 119.647H152.848C154.038 119.651 155.178 120.125 156.019 120.967C156.861 121.809 157.335 122.95 157.338 124.141V165.004C157.335 166.195 156.861 167.336 156.02 168.179C155.179 169.021 154.039 169.495 152.849 169.498ZM69.0681 120.901C68.2101 120.904 67.388 121.246 66.7814 121.853C66.1748 122.461 65.8329 123.284 65.8306 124.142V165.004C65.8331 165.863 66.175 166.686 66.7818 167.293C67.3885 167.9 68.2107 168.242 69.0687 168.245H152.848C153.706 168.242 154.528 167.9 155.135 167.293C155.741 166.685 156.083 165.862 156.086 165.004V124.142C156.083 123.283 155.741 122.46 155.134 121.853C154.528 121.246 153.706 120.904 152.848 120.901L69.0681 120.901Z" fill="#3F3D56"/>
<path d="M115.449 163.46C98.9253 163.46 81.6959 163.302 75.2674 163.199C74.4217 163.182 73.6162 162.834 73.0231 162.23C72.4299 161.627 72.096 160.815 72.0928 159.968V126.143C72.0931 125.839 72.2134 125.549 72.4273 125.334C72.6413 125.119 72.9314 124.998 73.2344 124.997H148.679C148.982 124.997 149.272 125.118 149.487 125.332C149.701 125.546 149.822 125.836 149.823 126.14V149.089C149.809 152.836 148.329 156.427 145.7 159.093C143.071 161.76 139.502 163.288 135.76 163.351C129.769 163.429 122.675 163.46 115.449 163.46Z" fill="#8B5CF6"/>
<path d="M144.201 146.981H76.0309C75.4601 146.979 74.9036 146.802 74.4371 146.473C73.9706 146.143 73.6166 145.678 73.4233 145.141L65.7074 123.473C65.5587 123.055 65.5124 122.608 65.5723 122.168C65.6322 121.729 65.7966 121.31 66.0517 120.947C66.3068 120.584 66.6451 120.288 67.0383 120.084C67.4314 119.879 67.8679 119.771 68.3111 119.771L153.523 119.652C153.928 119.651 154.328 119.74 154.695 119.911C155.062 120.082 155.388 120.332 155.648 120.643C155.908 120.953 156.097 121.317 156.202 121.709C156.306 122.101 156.324 122.511 156.253 122.91L156.318 122.938L156.074 123.509L156.071 123.515L146.744 145.301C146.531 145.8 146.177 146.225 145.725 146.524C145.273 146.822 144.743 146.981 144.201 146.981ZM153.527 120.906L68.3135 121.024C68.0707 121.025 67.8316 121.083 67.6162 121.196C67.4009 121.308 67.2155 121.47 67.0757 121.669C66.936 121.867 66.8459 122.097 66.8131 122.337C66.7803 122.578 66.8056 122.823 66.8871 123.052L74.6027 144.719C74.7087 145.013 74.9028 145.268 75.1584 145.449C75.4141 145.629 75.719 145.726 76.0318 145.727H144.201C144.498 145.727 144.788 145.64 145.035 145.477C145.282 145.313 145.476 145.081 145.593 144.808L154.92 123.021C155.019 122.79 155.059 122.538 155.037 122.288C155.015 122.038 154.931 121.797 154.793 121.588C154.655 121.378 154.467 121.206 154.246 121.087C154.025 120.968 153.778 120.906 153.527 120.906Z" fill="#3F3D56"/>
<path d="M110.831 151.697C113.779 151.697 116.169 149.305 116.169 146.354C116.169 143.403 113.779 141.011 110.831 141.011C107.883 141.011 105.493 143.403 105.493 146.354C105.493 149.305 107.883 151.697 110.831 151.697Z" fill="white"/>
<path d="M312.475 105.311C315.423 105.311 317.813 102.919 317.813 99.9682C317.813 97.0172 315.423 94.625 312.475 94.625C309.527 94.625 307.137 97.0172 307.137 99.9682C307.137 102.919 309.527 105.311 312.475 105.311Z" fill="white"/>
<path d="M514.367 177.47L500.108 163.379C499.414 162.687 498.59 162.14 497.685 161.768C496.779 161.396 495.808 161.206 494.829 161.21H494.779C493.792 161.213 492.816 161.412 491.907 161.795C490.997 162.178 490.173 162.737 489.481 163.442C486.293 166.671 484.48 171.013 484.422 175.553C484.365 180.093 486.068 184.479 489.174 187.788C489.325 187.951 489.481 188.108 489.638 188.264C490.505 189.127 491.462 189.894 492.493 190.552C495.312 192.375 498.599 193.34 501.956 193.329H502.062C504.366 193.321 506.645 192.856 508.768 191.961C510.891 191.066 512.815 189.758 514.43 188.114C515.829 186.693 516.608 184.774 516.597 182.779C516.585 180.784 515.783 178.875 514.367 177.47ZM513.541 187.23C510.893 189.9 507.407 191.574 503.671 191.972C499.934 192.369 496.174 191.465 493.026 189.411C492.125 188.815 491.284 188.133 490.514 187.374C487.442 184.337 485.701 180.202 485.674 175.88C485.647 171.557 487.336 167.401 490.37 164.325C490.947 163.737 491.635 163.269 492.394 162.95C493.153 162.63 493.968 162.465 494.792 162.464H494.829C495.644 162.461 496.452 162.619 497.207 162.929C497.961 163.238 498.647 163.694 499.225 164.269L513.484 178.367C514.665 179.535 515.334 181.125 515.344 182.787C515.355 184.448 514.706 186.046 513.541 187.23Z" fill="#3F3D56"/>
<path d="M467.582 131.222L453.323 117.124C451.919 115.731 450.021 114.951 448.043 114.956H448C447.012 114.96 446.034 115.159 445.124 115.543C444.214 115.928 443.388 116.488 442.695 117.193C440.06 119.873 438.351 123.327 437.819 127.05C437.287 130.772 437.96 134.567 439.74 137.879L439.746 137.885C440.48 139.24 441.392 140.49 442.458 141.602C442.577 141.74 442.714 141.878 442.852 142.016C446.127 145.27 450.556 147.091 455.17 147.081H455.283C457.586 147.071 459.866 146.605 461.988 145.709C464.111 144.813 466.036 143.504 467.651 141.859C468.344 141.156 468.892 140.324 469.264 139.409C469.636 138.494 469.824 137.514 469.817 136.526C469.811 135.539 469.61 134.562 469.227 133.652C468.843 132.741 468.284 131.916 467.582 131.222ZM466.755 140.982C465.256 142.508 463.47 143.722 461.5 144.554C459.53 145.386 457.415 145.818 455.276 145.827H455.17C451.959 145.826 448.82 144.874 446.148 143.092C443.475 141.31 441.389 138.776 440.152 135.811C438.914 132.845 438.581 129.579 439.192 126.423C439.804 123.268 441.335 120.364 443.591 118.077C444.758 116.896 446.347 116.226 448.007 116.216C449.667 116.205 451.263 116.854 452.446 118.021L466.705 132.112C467.885 133.283 468.552 134.874 468.562 136.537C468.571 138.199 467.921 139.798 466.755 140.982Z" fill="#3F3D56"/>
<path d="M515.278 181.9L499.558 166.359C498.527 165.342 497.135 164.776 495.688 164.785C494.241 164.794 492.856 165.377 491.838 166.407C490.565 167.695 489.557 169.221 488.873 170.899C488.189 172.577 487.843 174.374 487.853 176.186C487.863 177.998 488.23 179.791 488.933 181.461C489.635 183.131 490.66 184.646 491.948 185.92C493.237 187.193 494.763 188.2 496.44 188.883C498.117 189.565 499.912 189.91 501.723 189.898C503.533 189.886 505.323 189.517 506.991 188.811C508.659 188.106 510.171 187.079 511.442 185.788L515.278 181.9Z" fill="#8B5CF6"/>
<path d="M468.496 135.65L452.776 120.108C451.745 119.091 450.353 118.525 448.906 118.534C447.459 118.543 446.074 119.127 445.056 120.156C443.782 121.444 442.775 122.971 442.091 124.649C441.407 126.327 441.06 128.123 441.071 129.936C441.081 131.748 441.448 133.54 442.15 135.21C442.853 136.881 443.878 138.396 445.166 139.669C446.454 140.943 447.981 141.95 449.658 142.632C451.335 143.315 453.13 143.66 454.94 143.648C456.751 143.635 458.541 143.266 460.209 142.561C461.877 141.856 463.389 140.828 464.66 139.537L468.496 135.65Z" fill="#8B5CF6"/>
<path d="M498.003 191.58L497.628 192.57C495.862 191.9 494.15 191.227 492.493 190.552C463.135 178.561 449.12 164.526 439.746 137.885L439.74 137.879C439.295 136.625 438.863 135.342 438.443 134.03L439.433 133.71C439.764 134.972 440.247 136.189 440.873 137.334C441.387 138.794 441.915 140.217 442.457 141.602C451.268 164.087 464.263 176.937 489.174 187.788C490.426 188.333 491.71 188.874 493.025 189.411C494.552 190.407 496.235 191.14 498.003 191.58Z" fill="#3F3D56"/>
<path d="M453.061 145.94L452.181 146.832L484.705 178.987L485.586 178.095L453.061 145.94Z" fill="#3F3D56"/>
<path d="M177.7 119.296L177.717 98.6968L165.62 99.7789L169.889 112.771L154.392 136.286C153.423 136.504 152.538 136.999 151.845 137.711C151.152 138.424 150.682 139.323 150.49 140.298C150.299 141.274 150.395 142.284 150.768 143.206C151.14 144.127 151.772 144.92 152.587 145.489C153.402 146.057 154.365 146.375 155.358 146.406C156.35 146.436 157.33 146.176 158.178 145.658C159.026 145.14 159.705 144.387 160.132 143.489C160.56 142.592 160.717 141.59 160.585 140.604L177.7 119.296Z" fill="#FFB6B6"/>
</g>
<defs>
<clipPath id="clip0_224_1381">
<rect width="560" height="281" fill="white"/>
</clipPath>
</defs>
</svg>
