<svg width="560" height="456" viewBox="0 0 560 456" fill="none" xmlns="http://www.w3.org/2000/svg">
<g clip-path="url(#clip0_224_1314)">
<path d="M337.886 421.924C345.993 427.35 355.23 454.778 355.23 454.778C355.23 454.778 326.315 456.661 318.211 451.238C316.282 449.948 314.627 448.292 313.34 446.363C312.053 444.434 311.159 442.271 310.709 439.997C310.259 437.723 310.262 435.383 310.718 433.111C311.174 430.838 312.074 428.677 313.366 426.752C314.658 424.827 316.318 423.175 318.25 421.89C320.181 420.605 322.348 419.713 324.625 419.265C326.902 418.817 329.245 418.821 331.52 419.277C333.796 419.733 335.959 420.633 337.886 421.924Z" fill="#F1F1F1"/>
<path d="M355.559 454.572L355.106 454.933C338.583 434.231 313.649 427.081 313.399 427.011L313.555 426.454C313.807 426.524 338.916 433.72 355.559 454.572Z" fill="white"/>
<path d="M381.244 410.981C380.727 424.461 355.069 455.242 355.069 455.242C355.069 455.242 331.857 422.582 332.373 409.107C332.622 402.635 335.435 396.527 340.193 392.126C344.952 387.725 351.266 385.393 357.746 385.641C364.227 385.89 370.343 388.699 374.75 393.451C379.157 398.203 381.492 404.509 381.244 410.981Z" fill="#F1F1F1"/>
<path d="M355.551 455.48L354.797 455.208C367.228 420.736 357.564 386.203 357.465 385.858L358.235 385.637C358.335 385.984 368.072 420.757 355.551 455.48Z" fill="white"/>
<path d="M289.114 334.285H69.2132C65.2956 334.28 61.5396 332.724 58.7694 329.957C55.9992 327.191 54.4409 323.44 54.4365 319.527V68.5538C54.4409 64.6413 55.9992 60.8902 58.7694 58.1236C61.5396 55.357 65.2956 53.8008 69.2132 53.7964H289.114C293.032 53.8008 296.788 55.357 299.558 58.1236C302.328 60.8902 303.886 64.6413 303.891 68.5538V319.527C303.886 323.44 302.328 327.191 299.558 329.958C296.788 332.724 293.032 334.28 289.114 334.285Z" fill="#E6E6E6"/>
<path d="M278.838 321.986H79.4883C76.0098 321.982 72.675 320.6 70.2153 318.143C67.7557 315.687 66.3721 312.356 66.3682 308.883V79.1992C66.3721 75.7252 67.7557 72.3948 70.2153 69.9383C72.675 67.4819 76.0098 66.1001 79.4883 66.0962H278.838C282.317 66.1001 285.652 67.4819 288.111 69.9383C290.571 72.3947 291.954 75.7252 291.958 79.1992V308.883C291.954 312.356 290.571 315.687 288.111 318.143C285.652 320.6 282.317 321.982 278.838 321.986Z" fill="white"/>
<path d="M270.908 98.7864H170.342C169.911 98.787 169.484 98.7027 169.086 98.5384C168.687 98.374 168.325 98.1329 168.02 97.8286C167.715 97.5244 167.473 97.1631 167.308 96.7654C167.143 96.3677 167.058 95.9414 167.058 95.5109C167.058 95.0803 167.143 94.654 167.308 94.2563C167.473 93.8586 167.715 93.4973 168.02 93.1931C168.325 92.8889 168.687 92.6477 169.086 92.4833C169.484 92.319 169.911 92.2347 170.342 92.2354H270.908C271.339 92.2347 271.766 92.319 272.165 92.4833C272.563 92.6477 272.925 92.8889 273.231 93.1931C273.536 93.4973 273.778 93.8586 273.943 94.2563C274.108 94.654 274.193 95.0803 274.193 95.5109C274.193 95.9414 274.108 96.3677 273.943 96.7654C273.778 97.1631 273.536 97.5244 273.231 97.8286C272.925 98.1329 272.563 98.374 272.165 98.5384C271.766 98.7027 271.339 98.787 270.908 98.7864Z" fill="#E4E4E4"/>
<path d="M270.908 111.73H170.341C169.472 111.73 168.637 111.384 168.022 110.77C167.407 110.156 167.062 109.323 167.062 108.454C167.062 107.585 167.407 106.752 168.022 106.138C168.637 105.523 169.472 105.178 170.341 105.178H270.908C271.778 105.178 272.612 105.523 273.227 106.138C273.842 106.752 274.188 107.585 274.188 108.454C274.188 109.323 273.842 110.156 273.227 110.77C272.612 111.384 271.778 111.73 270.908 111.73Z" fill="#E4E4E4"/>
<path d="M213.935 124.673H170.341C169.472 124.673 168.637 124.328 168.022 123.713C167.407 123.099 167.062 122.266 167.062 121.397C167.062 120.528 167.407 119.695 168.022 119.081C168.637 118.467 169.472 118.122 170.341 118.122H213.935C214.804 118.122 215.639 118.467 216.254 119.081C216.869 119.695 217.214 120.528 217.214 121.397C217.214 122.266 216.869 123.099 216.254 123.713C215.639 124.328 214.804 124.673 213.935 124.673Z" fill="#E4E4E4"/>
<path d="M258.781 176.948H100.018C99.5868 176.949 99.1598 176.864 98.7613 176.7C98.3629 176.536 98.0007 176.294 97.6957 175.99C97.3906 175.686 97.1486 175.325 96.9835 174.927C96.8184 174.529 96.7334 174.103 96.7334 173.672C96.7334 173.242 96.8184 172.816 96.9835 172.418C97.1486 172.02 97.3906 171.659 97.6957 171.355C98.0007 171.05 98.3629 170.809 98.7613 170.645C99.1598 170.481 99.5868 170.396 100.018 170.397H258.781C259.212 170.396 259.639 170.481 260.037 170.645C260.436 170.809 260.798 171.05 261.103 171.355C261.408 171.659 261.65 172.02 261.815 172.418C261.98 172.816 262.065 173.242 262.065 173.672C262.065 174.103 261.98 174.529 261.815 174.927C261.65 175.325 261.408 175.686 261.103 175.99C260.798 176.294 260.436 176.536 260.037 176.7C259.639 176.864 259.212 176.949 258.781 176.948Z" fill="#E4E4E4"/>
<path d="M258.781 189.891H100.018C99.1483 189.891 98.3141 189.546 97.699 188.932C97.0839 188.317 96.7383 187.484 96.7383 186.616C96.7383 185.747 97.0839 184.914 97.699 184.299C98.3141 183.685 99.1483 183.34 100.018 183.34H258.781C259.651 183.34 260.485 183.685 261.1 184.299C261.715 184.914 262.061 185.747 262.061 186.616C262.061 187.484 261.715 188.317 261.1 188.932C260.485 189.546 259.651 189.891 258.781 189.891Z" fill="#E4E4E4"/>
<path d="M258.781 219.272H100.018C99.1482 219.272 98.314 218.927 97.6989 218.312C97.0838 217.698 96.7383 216.865 96.7383 215.996C96.7383 215.128 97.0838 214.294 97.6989 213.68C98.314 213.066 99.1482 212.721 100.018 212.721H258.781C259.651 212.721 260.485 213.066 261.1 213.68C261.715 214.294 262.061 215.128 262.061 215.996C262.061 216.865 261.715 217.698 261.1 218.312C260.485 218.927 259.651 219.272 258.781 219.272Z" fill="#E4E4E4"/>
<path d="M258.781 232.215H100.018C99.1483 232.215 98.3141 231.87 97.699 231.255C97.0839 230.641 96.7383 229.808 96.7383 228.939C96.7383 228.07 97.0839 227.237 97.699 226.623C98.3141 226.009 99.1483 225.664 100.018 225.664H258.781C259.651 225.664 260.485 226.009 261.1 226.623C261.715 227.237 262.061 228.07 262.061 228.939C262.061 229.808 261.715 230.641 261.1 231.255C260.485 231.87 259.651 232.215 258.781 232.215Z" fill="#E4E4E4"/>
<path d="M258.781 261.595H100.018C99.1482 261.595 98.314 261.25 97.6989 260.636C97.0838 260.021 96.7383 259.188 96.7383 258.319C96.7383 257.451 97.0838 256.618 97.6989 256.003C98.314 255.389 99.1482 255.044 100.018 255.044H258.781C259.651 255.044 260.485 255.389 261.1 256.003C261.715 256.618 262.061 257.451 262.061 258.319C262.061 259.188 261.715 260.021 261.1 260.636C260.485 261.25 259.651 261.595 258.781 261.595Z" fill="#E4E4E4"/>
<path d="M258.781 274.538H100.018C99.1483 274.538 98.3141 274.193 97.699 273.579C97.0839 272.964 96.7383 272.131 96.7383 271.262C96.7383 270.394 97.0839 269.561 97.699 268.946C98.3141 268.332 99.1483 267.987 100.018 267.987H258.781C259.651 267.987 260.485 268.332 261.1 268.946C261.715 269.561 262.061 270.394 262.061 271.262C262.061 272.131 261.715 272.964 261.1 273.579C260.485 274.193 259.651 274.538 258.781 274.538Z" fill="#E4E4E4"/>
<path d="M258.753 310.39H215.16C214.29 310.39 213.456 310.045 212.841 309.431C212.225 308.816 211.88 307.983 211.88 307.115C211.88 306.246 212.225 305.413 212.841 304.798C213.456 304.184 214.29 303.839 215.16 303.839H258.753C259.623 303.839 260.457 304.184 261.072 304.798C261.687 305.413 262.033 306.246 262.033 307.115C262.033 307.983 261.687 308.816 261.072 309.431C260.457 310.045 259.623 310.39 258.753 310.39Z" fill="#8B5CF6"/>
<path d="M142.503 108.838C142.512 115.872 140.127 122.701 135.74 128.204C134.321 129.996 132.706 131.623 130.924 133.055C126.061 136.994 120.12 139.374 113.88 139.882C113.03 139.955 112.174 139.989 111.311 139.989C109.601 139.989 107.894 139.849 106.207 139.568C105.612 139.475 105.03 139.361 104.448 139.227C103.435 139.002 102.434 138.723 101.451 138.392C98.2617 137.332 95.266 135.762 92.5808 133.743C91.8652 133.208 91.1763 132.64 90.5074 132.039C89.6893 131.314 88.9142 130.543 88.1861 129.728C87.9921 129.514 87.7981 129.293 87.6109 129.073C84.347 125.258 82.0545 120.712 80.9286 115.821C79.8028 110.931 79.8769 105.841 81.1447 100.985C82.4125 96.1295 84.8364 91.6516 88.2101 87.9329C91.5838 84.2142 95.8073 81.3647 100.521 79.627C105.235 77.8893 110.299 77.315 115.283 77.9528C120.267 78.5906 125.023 80.4218 129.145 83.2903C133.268 86.1589 136.636 89.9799 138.961 94.428C141.287 98.8762 142.502 103.82 142.503 108.838Z" fill="#E4E4E4"/>
<path d="M110.226 119.469C117.285 119.469 123.008 113.753 123.008 106.703C123.008 99.6529 117.285 93.9375 110.226 93.9375C103.166 93.9375 97.4434 99.6529 97.4434 106.703C97.4434 113.753 103.166 119.469 110.226 119.469Z" fill="#9E616A"/>
<path d="M124.455 100.48C124.513 99.3397 124.191 98.212 123.539 97.2737L123.077 96.619C121.412 93.4124 118.662 90.5264 116.649 88.4154C115.137 86.8321 113.626 86.0705 112.174 86.144C111.117 86.2194 110.134 86.7093 109.438 87.5068C107.526 87.3902 105.622 87.8331 103.959 88.7812C102.295 89.7293 100.945 91.1414 100.073 92.8445C93.9523 96.0712 95.7785 105.598 95.7984 105.698L97.2771 108.176L97.4443 107.862C97.4443 107.856 97.4642 107.829 97.491 107.775C97.7787 107.261 99.3439 104.402 100.401 102.591C100.787 101.974 101.3 101.446 101.906 101.042C102.896 100.366 104.034 99.9376 105.224 99.7923L108.475 99.3714L107.244 101.215H116.1L119.505 100.814C119.846 102.211 122.549 107.628 122.876 108.283L122.903 108.337L123.084 108.704L124.094 105.932C124.684 104.176 124.808 102.298 124.455 100.48Z" fill="#2F2E41"/>
<path d="M92.6747 133.809C93.2232 133.088 96.0662 129.721 102.608 127.937L106.073 124.082L119.967 121.871L127.037 125.772L135.74 128.204C134.321 129.996 132.706 131.622 130.924 133.054C126.061 136.994 120.12 139.373 113.88 139.882C113.03 139.955 112.174 139.989 111.311 139.989C109.601 139.989 107.894 139.848 106.207 139.568C105.612 139.474 105.03 139.361 104.448 139.227C103.435 139.002 102.434 138.723 101.451 138.392C98.2978 137.346 95.3343 135.798 92.6747 133.809C92.6413 133.789 92.6145 133.762 92.5811 133.742L92.6747 133.809Z" fill="#8B5CF6"/>
<path d="M356.343 15.6248H1.98487C1.45863 15.6242 0.954104 15.4152 0.581993 15.0435C0.209882 14.6719 0.000573678 14.1681 0 13.6425V1.98227C0.000573678 1.45671 0.209882 0.952849 0.581993 0.581225C0.954104 0.209602 1.45863 0.000572926 1.98487 0H356.343C356.869 0.000572926 357.373 0.209602 357.746 0.581225C358.118 0.952849 358.327 1.45671 358.327 1.98227V13.6425C358.327 14.1681 358.118 14.6719 357.746 15.0435C357.373 15.4152 356.869 15.6242 356.343 15.6248Z" fill="#8B5CF6"/>
<path d="M11.5192 10.0578C13.0755 10.0578 14.3372 8.79783 14.3372 7.24352C14.3372 5.68922 13.0755 4.4292 11.5192 4.4292C9.96284 4.4292 8.70117 5.68922 8.70117 7.24352C8.70117 8.79783 9.96284 10.0578 11.5192 10.0578Z" fill="white"/>
<path d="M22.2155 10.0578C23.7718 10.0578 25.0335 8.79783 25.0335 7.24352C25.0335 5.68922 23.7718 4.4292 22.2155 4.4292C20.6591 4.4292 19.3975 5.68922 19.3975 7.24352C19.3975 8.79783 20.6591 10.0578 22.2155 10.0578Z" fill="white"/>
<path d="M32.9118 10.0578C34.4681 10.0578 35.7298 8.79783 35.7298 7.24352C35.7298 5.68922 34.4681 4.4292 32.9118 4.4292C31.3554 4.4292 30.0938 5.68922 30.0938 7.24352C30.0938 8.79783 31.3554 10.0578 32.9118 10.0578Z" fill="white"/>
<path d="M345.862 5.30678H333.545C333.305 5.30472 333.075 5.20781 332.905 5.03716C332.736 4.8665 332.641 4.63591 332.641 4.3956C332.641 4.15528 332.736 3.92469 332.905 3.75403C333.075 3.58337 333.305 3.48647 333.545 3.48441H345.862C345.983 3.48338 346.102 3.50619 346.214 3.55152C346.326 3.59685 346.427 3.6638 346.513 3.74852C346.598 3.83323 346.666 3.93402 346.712 4.04508C346.759 4.15615 346.783 4.27528 346.783 4.3956C346.783 4.51592 346.759 4.63504 346.712 4.7461C346.666 4.85717 346.598 4.95796 346.513 5.04268C346.427 5.12739 346.326 5.19434 346.214 5.23967C346.102 5.285 345.983 5.30781 345.862 5.30678Z" fill="white"/>
<path d="M345.862 8.72328H333.545C333.303 8.72328 333.071 8.62728 332.9 8.4564C332.729 8.28552 332.633 8.05376 332.633 7.81209C332.633 7.57043 332.729 7.33867 332.9 7.16779C333.071 6.99691 333.303 6.90091 333.545 6.90091H345.862C345.983 6.89988 346.102 6.92269 346.214 6.96802C346.326 7.01335 346.427 7.0803 346.513 7.16501C346.598 7.24973 346.666 7.35053 346.712 7.46159C346.759 7.57265 346.783 7.69178 346.783 7.81209C346.783 7.93241 346.759 8.05155 346.712 8.16261C346.666 8.27367 346.598 8.37447 346.513 8.45918C346.427 8.54389 346.326 8.61085 346.214 8.65618C346.102 8.70151 345.983 8.72431 345.862 8.72328Z" fill="white"/>
<path d="M345.863 12.1403H333.546C333.305 12.1383 333.075 12.0414 332.905 11.8708C332.736 11.7001 332.641 11.4694 332.641 11.2291C332.641 10.9887 332.736 10.758 332.905 10.5874C333.075 10.4167 333.305 10.3198 333.546 10.3179H345.863C346.104 10.3198 346.334 10.4167 346.503 10.5874C346.673 10.758 346.768 10.9887 346.768 11.2291C346.768 11.4694 346.673 11.7001 346.503 11.8708C346.334 12.0414 346.104 12.1383 345.863 12.1403Z" fill="white"/>
<path d="M443.148 313.564C442.581 312.948 442.157 312.215 441.904 311.417C441.651 310.62 441.577 309.776 441.686 308.947C441.795 308.117 442.084 307.322 442.534 306.616C442.985 305.911 443.584 305.312 444.291 304.863L439.595 285.075L449.534 288.701L452.47 306.936C453.147 308.172 453.346 309.613 453.03 310.986C452.714 312.359 451.905 313.568 450.756 314.385C449.607 315.202 448.198 315.569 446.796 315.418C445.394 315.267 444.096 314.607 443.148 313.564Z" fill="#9E616A"/>
<path d="M419.246 230.64L423.235 240.884C423.235 240.884 421.525 251.128 424.375 253.404C427.224 255.68 426.084 255.68 426.084 257.388C426.182 258.612 426.537 259.803 427.127 260.881C427.716 261.96 428.525 262.902 429.503 263.648C431.783 265.355 442.04 300.07 442.04 300.07H452.297C451.965 297.424 451.965 294.748 452.297 292.102C452.867 288.119 450.587 277.875 449.448 276.168C448.308 274.46 449.448 272.184 449.448 268.77C449.448 265.355 447.168 263.648 447.168 257.957C447.168 252.266 440.33 207.877 440.9 202.755C441.47 197.633 435.202 193.08 435.202 193.08H429.503L419.246 230.64Z" fill="#E4E4E4"/>
<path d="M445.477 447.074H437.897L434.291 417.872L445.479 417.873L445.477 447.074Z" fill="#9E616A"/>
<path d="M447.412 454.413L422.969 454.412V454.103C422.969 451.583 423.971 449.166 425.756 447.385C427.54 445.603 429.96 444.602 432.483 444.602L436.948 441.219L445.279 444.602L447.413 444.602L447.412 454.413Z" fill="#2F2E41"/>
<path d="M376.129 446.857L369.011 444.256L375.669 415.595L386.176 419.434L376.129 446.857Z" fill="#9E616A"/>
<path d="M375.421 454.413L352.466 446.025L352.572 445.735C353.439 443.369 355.212 441.443 357.5 440.382C359.789 439.321 362.406 439.211 364.775 440.076L370.133 438.432L376.792 444.467L378.796 445.199L375.421 454.413Z" fill="#2F2E41"/>
<path d="M428.777 310.524C428.777 310.524 423.648 335.564 432.196 333.288C440.743 331.011 437.324 309.386 437.324 309.386L428.777 310.524Z" fill="#A0616A"/>
<path d="M391.167 289.752C391.167 289.752 384.329 298.858 384.329 303.98C384.329 309.102 382.05 354.629 382.05 354.629C382.05 354.629 364.748 422.425 368.167 425.84C371.586 429.254 383.553 432.669 385.262 430.961C386.972 429.254 401.994 359.182 401.994 359.182L416.24 321.053L429.346 375.686L430.486 433.733C430.486 433.733 444.732 437.148 447.581 434.871C450.431 432.595 451 377.393 447.581 358.044C444.162 338.694 448.151 294.305 448.151 294.305L391.167 289.752Z" fill="#2F2E41"/>
<path d="M414.02 168.251C423.461 168.251 431.115 160.607 431.115 151.178C431.115 141.749 423.461 134.105 414.02 134.105C404.579 134.105 396.925 141.749 396.925 151.178C396.925 160.607 404.579 168.251 414.02 168.251Z" fill="#9E616A"/>
<path d="M392.307 193.006C392.307 193.006 397.229 185.682 406.917 176.007C412.045 174.3 420.931 175.295 424.012 176.007C438.258 194.787 439.154 193.54 442.863 204.033C443.824 206.754 444.305 209.368 443.878 211.502C442.168 220.038 447.582 289.183 448.151 291.46C448.721 293.736 452.71 296.581 448.721 296.581C444.732 296.581 384.329 294.305 385.469 292.598C386.609 290.89 392.307 193.006 392.307 193.006Z" fill="#E4E4E4"/>
<path opacity="0.1" d="M389.697 291.847L406.838 254.184L398.268 294.239L389.697 291.847Z" fill="black"/>
<path d="M408.848 166.995C410.448 165.805 411.922 164.454 413.246 162.964C414.575 161.46 415.407 159.583 415.628 157.589C415.725 156.595 415.569 155.593 415.174 154.675C414.779 153.758 414.158 152.955 413.368 152.342C411.74 151.193 409.257 151.26 407.906 152.723C408.559 150.616 409.155 148.129 407.832 146.362C406.629 144.753 404.384 144.48 402.444 143.949C398.704 142.909 395.486 140.515 393.418 137.234L396.711 137.914L396.344 135.57L399.073 136.517L399.097 133.252L401.914 134.826C405.362 131.668 409.907 129.977 414.583 130.111C416.942 130.151 419.253 130.784 421.301 131.953C423.353 133.139 424.908 135.025 425.678 137.265C427.128 135.762 429.713 135.878 431.44 137.053C433.167 138.227 434.181 140.192 434.878 142.16C436.258 145.933 436.579 150.011 435.807 153.953C435.012 157.905 432.88 161.463 429.769 164.03C426.912 166.208 423.51 167.559 419.936 167.936C416.376 168.305 412.781 168.151 409.266 167.481" fill="#2F2E41"/>
<path d="M384.361 313.49C384.928 312.874 385.353 312.141 385.606 311.344C385.858 310.546 385.933 309.703 385.824 308.873C385.715 308.044 385.425 307.248 384.975 306.542C384.525 305.837 383.925 305.238 383.219 304.789L387.915 285.001L377.975 288.627L375.04 306.863C374.363 308.099 374.163 309.539 374.479 310.912C374.795 312.285 375.604 313.494 376.753 314.311C377.902 315.128 379.311 315.496 380.713 315.344C382.116 315.193 383.414 314.533 384.361 313.49Z" fill="#9E616A"/>
<path d="M398.006 193.006H392.307C392.307 193.006 386.039 197.559 386.609 202.681C387.179 207.803 380.341 252.192 380.341 257.883C380.341 263.574 378.061 265.281 378.061 268.696C378.061 272.11 379.201 274.387 378.061 276.094C376.922 277.801 374.642 288.045 375.212 292.029C375.543 294.674 375.543 297.35 375.212 299.996H385.469C385.469 299.996 395.726 265.281 398.006 263.574C398.983 262.829 399.793 261.886 400.382 260.807C400.971 259.729 401.327 258.539 401.425 257.314C401.425 255.607 400.285 255.607 403.134 253.33C405.983 251.054 404.274 240.81 404.274 240.81L408.263 230.567L398.006 193.006Z" fill="#E4E4E4"/>
<path d="M559.203 456H246.618C246.513 456 246.41 455.98 246.313 455.94C246.216 455.9 246.128 455.842 246.053 455.768C245.979 455.694 245.92 455.606 245.88 455.51C245.84 455.413 245.819 455.309 245.819 455.205C245.819 455.1 245.84 454.996 245.88 454.9C245.92 454.803 245.979 454.715 246.053 454.641C246.128 454.567 246.216 454.509 246.313 454.469C246.41 454.429 246.513 454.409 246.618 454.409H559.203C559.308 454.409 559.412 454.429 559.509 454.469C559.606 454.509 559.694 454.567 559.768 454.641C559.842 454.715 559.901 454.803 559.941 454.9C559.981 454.996 560.002 455.1 560.002 455.205C560.002 455.309 559.981 455.413 559.941 455.51C559.901 455.606 559.842 455.694 559.768 455.768C559.694 455.842 559.606 455.9 559.509 455.94C559.412 455.98 559.308 456 559.203 456Z" fill="#CACACA"/>
</g>
<defs>
<clipPath id="clip0_224_1314">
<rect width="560" height="456" fill="white"/>
</clipPath>
</defs>
</svg>
