<svg width="24" height="24" viewBox="0 0 24 24" fill="none" xmlns="http://www.w3.org/2000/svg">
<g clip-path="url(#clip0_224_1420)">
<path fill-rule="evenodd" clip-rule="evenodd" d="M12.0005 0.957031C5.74792 0.957031 0.677734 6.02609 0.677734 12.2798C0.677734 17.2827 3.92205 21.5267 8.42092 23.0241C8.98661 23.1291 9.19436 22.7785 9.19436 22.4794C9.19436 22.2094 9.18386 21.3175 9.17898 20.3713C6.02898 21.0563 5.3643 19.0354 5.3643 19.0354C4.84923 17.7267 4.10711 17.3787 4.10711 17.3787C3.07961 16.6759 4.18455 16.6905 4.18455 16.6905C5.32136 16.7702 5.92023 17.8573 5.92023 17.8573C6.93011 19.588 8.56905 19.0877 9.21517 18.7986C9.3168 18.0668 9.61023 17.5671 9.93405 17.2843C7.41911 16.9984 4.77517 16.0273 4.77517 11.6888C4.77517 10.4526 5.21767 9.44253 5.94198 8.64941C5.82423 8.36441 5.43667 7.21278 6.05148 5.65316C6.05148 5.65316 7.00211 5.34884 9.16586 6.81378C10.0692 6.56272 11.038 6.43653 12.0005 6.43222C12.9624 6.43653 13.9317 6.56234 14.8368 6.81341C16.9979 5.34847 17.9474 5.65278 17.9474 5.65278C18.5637 7.21222 18.1762 8.36403 18.0586 8.64903C18.7846 9.44216 19.2239 10.4522 19.2239 11.6884C19.2239 16.0373 16.5751 16.9947 14.0538 17.2752C14.4601 17.6265 14.822 18.3158 14.822 19.372C14.822 20.887 14.8089 22.1063 14.8089 22.4792C14.8089 22.7805 15.0129 23.1336 15.5866 23.0224C20.0829 21.5235 23.3234 17.2808 23.3234 12.2798C23.3232 6.02647 18.2536 0.957031 12.0005 0.957031Z" fill="#8B5CF6"/>
<path d="M4.96653 17.2136C4.94159 17.2699 4.85309 17.2868 4.77246 17.2483C4.68996 17.2116 4.64403 17.1349 4.67065 17.0785C4.69503 17.0203 4.78371 17.0044 4.86565 17.0432C4.94815 17.0801 4.99503 17.1576 4.96634 17.2138L4.96653 17.2136ZM5.42515 17.7253C5.37134 17.7754 5.26578 17.7521 5.19415 17.6728C5.1199 17.5941 5.10603 17.4885 5.16096 17.4377C5.21684 17.3878 5.31921 17.4115 5.39346 17.4902C5.46734 17.5701 5.48196 17.6747 5.42534 17.7255L5.42515 17.7253ZM5.87178 18.3773C5.8024 18.4256 5.68878 18.3805 5.61865 18.2798C5.54928 18.1789 5.54928 18.058 5.62053 18.0098C5.69046 17.9614 5.8024 18.0051 5.87365 18.1048C5.94265 18.207 5.94265 18.3281 5.87178 18.3773ZM6.48321 19.0075C6.42134 19.0759 6.28896 19.0575 6.19221 18.9643C6.0934 18.873 6.06584 18.7431 6.1279 18.6748C6.1909 18.6062 6.32384 18.6253 6.42115 18.718C6.51996 18.8091 6.54978 18.9392 6.48359 19.0073L6.48321 19.0075ZM7.32696 19.3733C7.2994 19.462 7.17228 19.5023 7.04384 19.4644C6.91578 19.4256 6.83196 19.3219 6.85821 19.2323C6.88446 19.1428 7.01253 19.101 7.14171 19.1413C7.26978 19.18 7.35359 19.2831 7.32696 19.3733ZM8.25378 19.441C8.25696 19.5343 8.14821 19.6116 8.01378 19.6135C7.87821 19.6166 7.76853 19.5409 7.76721 19.449C7.76721 19.3547 7.87371 19.2784 8.00909 19.2758C8.14353 19.2733 8.25396 19.3483 8.25396 19.4408L8.25378 19.441ZM9.1159 19.2943C9.13203 19.3853 9.03846 19.4788 8.90478 19.5038C8.77353 19.5281 8.65165 19.4715 8.63478 19.3813C8.61865 19.288 8.7139 19.1944 8.84515 19.1702C8.97903 19.1471 9.09903 19.2019 9.1159 19.2943Z" fill="#8B5CF6"/>
</g>
<defs>
<clipPath id="clip0_224_1420">
<rect width="24" height="24" fill="white"/>
</clipPath>
</defs>
</svg>
