<svg width="159" height="24" viewBox="0 0 159 24" fill="none" xmlns="http://www.w3.org/2000/svg">
<path d="M16.5975 8.4724C16.0453 7.40436 15.2783 6.60334 14.2966 6.06932C13.3148 5.51476 12.1797 5.23748 10.8912 5.23748C9.4799 5.23748 8.22205 5.55584 7.1176 6.19255C6.01314 6.82927 5.1439 7.73299 4.50986 8.90372C3.89627 10.0745 3.58948 11.43 3.58948 12.9705C3.58948 14.5109 3.89627 15.8768 4.50986 17.068C5.1439 18.2388 6.01314 19.1425 7.1176 19.7792C8.22205 20.4159 9.4799 20.7343 10.8912 20.7343C12.7933 20.7343 14.3375 20.2003 15.5237 19.1322C16.71 18.0642 17.4361 16.6162 17.702 14.7882H9.69466V11.9846H21.4448V14.7266C21.2198 16.3902 20.6267 17.9204 19.6654 19.3171C18.7246 20.7137 17.4872 21.8331 15.9532 22.6752C14.4397 23.4968 12.7524 23.9076 10.8912 23.9076C8.88677 23.9076 7.05624 23.4454 5.39956 22.5212C3.74287 21.5764 2.42366 20.2721 1.44193 18.6085C0.480642 16.9448 0 15.0655 0 12.9705C0 10.8755 0.480642 8.99615 1.44193 7.33248C2.42366 5.66881 3.74287 4.37484 5.39956 3.45058C7.07669 2.50578 8.90722 2.03338 10.8912 2.03338C13.1614 2.03338 15.176 2.5982 16.935 3.72786C18.7144 4.83697 20.0029 6.41849 20.8006 8.4724H16.5975Z" fill="#FAFAFA"/>
<path d="M40.2033 6.74711V23.7227H36.7059V21.7202C36.1536 22.4185 35.4276 22.973 34.5276 23.3838C33.6482 23.7741 32.7073 23.9692 31.7051 23.9692C30.3757 23.9692 29.1792 23.6919 28.1157 23.1374C27.0726 22.5828 26.2442 21.7612 25.6306 20.6727C25.0375 19.5841 24.7409 18.2696 24.7409 16.7291V6.74711H28.2077V16.2054C28.2077 17.7253 28.5861 18.896 29.3428 19.7176C30.0996 20.5186 31.1325 20.9191 32.4414 20.9191C33.7504 20.9191 34.7833 20.5186 35.54 19.7176C36.3173 18.896 36.7059 17.7253 36.7059 16.2054V6.74711H40.2033Z" fill="#FAFAFA"/>
<path d="M46.5973 4.49808C45.9633 4.49808 45.4315 4.28241 45.002 3.85109C44.5725 3.41977 44.3577 2.88575 44.3577 2.24904C44.3577 1.61232 44.5725 1.07831 45.002 0.646984C45.4315 0.215661 45.9633 0 46.5973 0C47.2109 0 47.7324 0.215661 48.1619 0.646984C48.5914 1.07831 48.8062 1.61232 48.8062 2.24904C48.8062 2.88575 48.5914 3.41977 48.1619 3.85109C47.7324 4.28241 47.2109 4.49808 46.5973 4.49808ZM48.3153 6.74711V23.7227H44.8179V6.74711H48.3153Z" fill="#FAFAFA"/>
<path d="M56.4046 0.924263V23.7227H52.9072V0.924263H56.4046Z" fill="#FAFAFA"/>
<path d="M69.74 6.46983C71.0286 6.46983 72.1739 6.74711 73.1761 7.30167C74.1988 7.85623 74.9964 8.67779 75.5691 9.76637C76.1622 10.8549 76.4588 12.1694 76.4588 13.7099V23.7227H72.992V14.2336C72.992 12.7137 72.6137 11.5533 71.8569 10.7522C71.1001 9.93068 70.0673 9.5199 68.7583 9.5199C67.4493 9.5199 66.4062 9.93068 65.629 10.7522C64.8722 11.5533 64.4939 12.7137 64.4939 14.2336V23.7227H60.9964V0.924263H64.4939V8.71887C65.087 8 65.8335 7.44544 66.7335 7.0552C67.6538 6.66496 68.656 6.46983 69.74 6.46983Z" fill="#FAFAFA"/>
<path d="M96.413 14.819C96.413 15.4557 96.3721 16.0308 96.2903 16.5443H83.3743C83.4766 17.8999 83.9777 18.9884 84.8776 19.81C85.7775 20.6316 86.882 21.0424 88.191 21.0424C90.0727 21.0424 91.4021 20.2516 92.1793 18.6701H95.9529C95.4415 20.2311 94.5109 21.5148 93.161 22.5212C91.8316 23.5071 90.1749 24 88.191 24C86.5752 24 85.1231 23.6406 83.8345 22.9217C82.5665 22.1823 81.5643 21.1553 80.828 19.8408C80.1121 18.5058 79.7542 16.9653 79.7542 15.2195C79.7542 13.4737 80.1019 11.9435 80.7973 10.629C81.5131 9.29397 82.5051 8.26701 83.7732 7.54814C85.0617 6.82927 86.5343 6.46983 88.191 6.46983C89.7863 6.46983 91.2078 6.819 92.4554 7.51733C93.703 8.21566 94.6745 9.20154 95.3699 10.475C96.0653 11.7279 96.413 13.1759 96.413 14.819ZM92.7622 13.7099C92.7418 12.4159 92.2816 11.3787 91.3816 10.5982C90.4817 9.81771 89.367 9.42747 88.0376 9.42747C86.8309 9.42747 85.798 9.81771 84.939 10.5982C84.08 11.3582 83.5686 12.3954 83.405 13.7099H92.7622Z" fill="#FAFAFA"/>
<path d="M103.352 9.21181C103.864 8.34917 104.539 7.68164 105.377 7.20924C106.236 6.7163 107.249 6.46983 108.414 6.46983V10.1053H107.525C106.154 10.1053 105.111 10.4544 104.395 11.1528C103.7 11.8511 103.352 13.0629 103.352 14.7882V23.7227H99.8549V6.74711H103.352V9.21181Z" fill="#FAFAFA"/>
<path d="M132.092 6.46983C133.422 6.46983 134.608 6.74711 135.651 7.30167C136.715 7.85623 137.543 8.67779 138.136 9.76637C138.75 10.8549 139.057 12.1694 139.057 13.7099V23.7227H135.59V14.2336C135.59 12.7137 135.211 11.5533 134.455 10.7522C133.698 9.93068 132.665 9.5199 131.356 9.5199C130.047 9.5199 129.004 9.93068 128.227 10.7522C127.47 11.5533 127.092 12.7137 127.092 14.2336V23.7227H123.625V14.2336C123.625 12.7137 123.246 11.5533 122.49 10.7522C121.733 9.93068 120.7 9.5199 119.391 9.5199C118.082 9.5199 117.039 9.93068 116.262 10.7522C115.505 11.5533 115.127 12.7137 115.127 14.2336V23.7227H111.629V6.74711H115.127V8.68806C115.699 7.98973 116.425 7.44544 117.305 7.0552C118.184 6.66496 119.125 6.46983 120.127 6.46983C121.477 6.46983 122.684 6.75738 123.748 7.33248C124.811 7.90757 125.629 8.73941 126.202 9.82798C126.713 8.80103 127.511 7.98973 128.595 7.39409C129.679 6.77792 130.845 6.46983 132.092 6.46983Z" fill="#FAFAFA"/>
<path d="M159 14.819C159 15.4557 158.959 16.0308 158.877 16.5443H145.961C146.064 17.8999 146.565 18.9884 147.465 19.81C148.365 20.6316 149.469 21.0424 150.778 21.0424C152.66 21.0424 153.989 20.2516 154.766 18.6701H158.54C158.028 20.2311 157.098 21.5148 155.748 22.5212C154.419 23.5071 152.762 24 150.778 24C149.162 24 147.71 23.6406 146.421 22.9217C145.153 22.1823 144.151 21.1553 143.415 19.8408C142.699 18.5058 142.341 16.9653 142.341 15.2195C142.341 13.4737 142.689 11.9435 143.384 10.629C144.1 9.29397 145.092 8.26701 146.36 7.54814C147.649 6.82927 149.121 6.46983 150.778 6.46983C152.373 6.46983 153.795 6.819 155.042 7.51733C156.29 8.21566 157.262 9.20154 157.957 10.475C158.652 11.7279 159 13.1759 159 14.819ZM155.349 13.7099C155.329 12.4159 154.869 11.3787 153.969 10.5982C153.069 9.81771 151.954 9.42747 150.625 9.42747C149.418 9.42747 148.385 9.81771 147.526 10.5982C146.667 11.3582 146.156 12.3954 145.992 13.7099H155.349Z" fill="#FAFAFA"/>
</svg>
