<svg width="461" height="334" viewBox="0 0 461 334" fill="none" xmlns="http://www.w3.org/2000/svg">
<g clip-path="url(#clip0_224_1007)">
<path d="M268.532 58.8804C277.172 58.8804 284.176 51.9032 284.176 43.2964C284.176 34.6896 277.172 27.7124 268.532 27.7124C259.892 27.7124 252.888 34.6896 252.888 43.2964C252.888 51.9032 259.892 58.8804 268.532 58.8804Z" fill="#F2F2F2"/>
<path d="M389.888 290.164C413.141 272.521 424.247 242.873 417.294 214.591C417.121 213.889 416.939 213.188 416.747 212.488C412.137 195.7 400.733 179.745 384.112 174.381C370.156 169.877 354.923 173.34 340.363 171.549C311.782 168.033 289.624 144.996 274.032 120.877C258.441 96.757 246.459 69.7584 225.741 49.832C191.592 16.9867 135.886 9.91512 93.5461 31.2949C51.206 52.6748 24.2358 100.108 25.386 147.381C26.5362 194.654 54.7083 239.85 95.621 263.829C110.651 272.639 128.034 278.879 145.334 276.695C160.345 274.801 173.984 266.766 188.924 264.381C212.414 260.63 235.754 271.21 256.07 283.538C276.387 295.867 296.011 310.48 319.098 316.195C341.516 321.745 369.289 305.793 389.888 290.164Z" fill="#F2F2F2"/>
<path d="M356.479 32.2877C355.969 31.9492 355.453 31.6282 354.943 31.3013C340.209 21.9137 324.415 14.2873 307.89 8.5797L304.058 61.2369H279.766V0.892989C278.237 0.577816 276.696 0.280153 275.155 0V61.2369H246.288C230.396 61.2369 215.155 54.9481 203.918 43.7541C192.681 32.56 186.368 17.3776 186.368 1.54675C184.821 1.87943 183.286 2.23541 181.751 2.61478V61.2369H158.238L154.588 11.0252C137.606 17.5133 121.483 26.0454 106.579 36.4316C106.322 36.6067 106.064 36.7877 105.812 36.9628C104.517 37.8674 103.24 38.7896 101.968 39.7234V240.611H171.263L170.038 223.714L163.301 130.943H298.99L292.252 223.714L291.027 240.611H359.555V34.3188C358.535 33.6301 357.51 32.9531 356.479 32.2877ZM181.751 115.622H162.187L158.572 65.8361H181.751V115.622ZM275.155 115.622H242.298V114.635C242.298 114.161 242.204 113.692 242.022 113.254C241.839 112.816 241.572 112.418 241.235 112.083C240.898 111.748 240.499 111.482 240.059 111.301C239.619 111.12 239.147 111.028 238.671 111.028H224.387C223.911 111.028 223.44 111.121 223.001 111.303C222.562 111.484 222.162 111.749 221.826 112.084C221.49 112.419 221.223 112.817 221.041 113.255C220.859 113.692 220.766 114.162 220.766 114.635V115.622H186.368V65.8361H275.155V115.622ZM279.766 115.622V65.8361H303.724L300.109 115.622H279.766Z" fill="#3F3D56"/>
<path d="M0 253.475C5.08989 259.483 10.5952 265.129 16.4756 270.372L444.524 270.956C450.405 265.713 455.91 260.067 461 254.059L0 253.475Z" fill="#3F3D56"/>
<path d="M290.274 199.371V249.392C290.274 250.03 290.529 250.641 290.981 251.092C291.434 251.542 292.047 251.796 292.687 251.796H367.1C367.739 251.796 368.353 251.542 368.806 251.092C369.258 250.641 369.512 250.03 369.513 249.392V199.371C369.511 198.734 369.257 198.123 368.804 197.673C368.352 197.223 367.739 196.97 367.1 196.969H292.687C292.048 196.97 291.435 197.223 290.983 197.673C290.53 198.123 290.275 198.734 290.274 199.371Z" fill="#3F3D56"/>
<path d="M292.02 199.993V248.775C292.02 249.116 292.156 249.442 292.398 249.683C292.64 249.924 292.967 250.059 293.309 250.06H366.48C366.822 250.059 367.15 249.924 367.391 249.683C367.633 249.442 367.769 249.116 367.77 248.775V199.993C367.77 199.652 367.634 199.325 367.392 199.084C367.15 198.842 366.822 198.706 366.48 198.706H293.309C292.967 198.706 292.639 198.842 292.397 199.084C292.155 199.325 292.02 199.652 292.02 199.993Z" fill="#8B5CF6"/>
<path d="M288.717 259.148C288.854 259.318 289.027 259.455 289.224 259.549C289.421 259.643 289.637 259.691 289.856 259.69H369.534C369.752 259.69 369.967 259.641 370.164 259.548C370.36 259.454 370.534 259.318 370.671 259.15C370.808 258.981 370.906 258.784 370.957 258.573C371.009 258.362 371.012 258.143 370.967 257.93L369.73 252.078C369.679 251.839 369.569 251.617 369.409 251.432C369.25 251.246 369.046 251.104 368.818 251.017C368.652 250.952 368.475 250.919 368.297 250.919H291.088C290.91 250.919 290.733 250.952 290.568 251.017C290.339 251.104 290.135 251.246 289.976 251.432C289.816 251.617 289.706 251.839 289.655 252.078L288.418 257.93C288.374 258.142 288.378 258.362 288.43 258.572C288.482 258.783 288.58 258.979 288.717 259.148Z" fill="#2F2E41"/>
<path d="M365.563 253.44H367.445C367.603 253.44 367.731 253.312 367.731 253.155V252.258C367.731 252.101 367.603 251.973 367.445 251.973H365.563C365.405 251.973 365.277 252.101 365.277 252.258V253.155C365.277 253.312 365.405 253.44 365.563 253.44Z" fill="#3F3D56"/>
<path d="M360.655 253.44H362.537C362.695 253.44 362.823 253.312 362.823 253.155V252.258C362.823 252.101 362.695 251.973 362.537 251.973H360.655C360.497 251.973 360.369 252.101 360.369 252.258V253.155C360.369 253.312 360.497 253.44 360.655 253.44Z" fill="#3F3D56"/>
<path d="M355.747 253.44H357.629C357.787 253.44 357.915 253.312 357.915 253.155V252.258C357.915 252.101 357.787 251.973 357.629 251.973H355.747C355.589 251.973 355.461 252.101 355.461 252.258V253.155C355.461 253.312 355.589 253.44 355.747 253.44Z" fill="#3F3D56"/>
<path d="M350.839 253.44H352.721C352.879 253.44 353.007 253.312 353.007 253.155V252.258C353.007 252.101 352.879 251.973 352.721 251.973H350.839C350.681 251.973 350.553 252.101 350.553 252.258V253.155C350.553 253.312 350.681 253.44 350.839 253.44Z" fill="#3F3D56"/>
<path d="M345.931 253.44H347.813C347.971 253.44 348.099 253.312 348.099 253.155V252.258C348.099 252.101 347.971 251.973 347.813 251.973H345.931C345.773 251.973 345.645 252.101 345.645 252.258V253.155C345.645 253.312 345.773 253.44 345.931 253.44Z" fill="#3F3D56"/>
<path d="M341.023 253.44H342.905C343.063 253.44 343.191 253.312 343.191 253.155V252.258C343.191 252.101 343.063 251.973 342.905 251.973H341.023C340.865 251.973 340.737 252.101 340.737 252.258V253.155C340.737 253.312 340.865 253.44 341.023 253.44Z" fill="#3F3D56"/>
<path d="M336.115 253.44H337.997C338.155 253.44 338.283 253.312 338.283 253.155V252.258C338.283 252.101 338.155 251.973 337.997 251.973H336.115C335.957 251.973 335.829 252.101 335.829 252.258V253.155C335.829 253.312 335.957 253.44 336.115 253.44Z" fill="#3F3D56"/>
<path d="M331.207 253.44H333.089C333.247 253.44 333.375 253.312 333.375 253.155V252.258C333.375 252.101 333.247 251.973 333.089 251.973H331.207C331.049 251.973 330.921 252.101 330.921 252.258V253.155C330.921 253.312 331.049 253.44 331.207 253.44Z" fill="#3F3D56"/>
<path d="M326.299 253.44H328.181C328.339 253.44 328.467 253.312 328.467 253.155V252.258C328.467 252.101 328.339 251.973 328.181 251.973H326.299C326.141 251.973 326.013 252.101 326.013 252.258V253.155C326.013 253.312 326.141 253.44 326.299 253.44Z" fill="#3F3D56"/>
<path d="M321.391 253.44H323.273C323.431 253.44 323.559 253.312 323.559 253.155V252.258C323.559 252.101 323.431 251.973 323.273 251.973H321.391C321.233 251.973 321.105 252.101 321.105 252.258V253.155C321.105 253.312 321.233 253.44 321.391 253.44Z" fill="#3F3D56"/>
<path d="M316.482 253.44H318.364C318.522 253.44 318.65 253.312 318.65 253.155V252.258C318.65 252.101 318.522 251.973 318.364 251.973H316.482C316.324 251.973 316.196 252.101 316.196 252.258V253.155C316.196 253.312 316.324 253.44 316.482 253.44Z" fill="#3F3D56"/>
<path d="M311.574 253.44H313.456C313.614 253.44 313.742 253.312 313.742 253.155V252.258C313.742 252.101 313.614 251.973 313.456 251.973H311.574C311.416 251.973 311.288 252.101 311.288 252.258V253.155C311.288 253.312 311.416 253.44 311.574 253.44Z" fill="#3F3D56"/>
<path d="M306.666 253.44H308.548C308.706 253.44 308.834 253.312 308.834 253.155V252.258C308.834 252.101 308.706 251.973 308.548 251.973H306.666C306.508 251.973 306.38 252.101 306.38 252.258V253.155C306.38 253.312 306.508 253.44 306.666 253.44Z" fill="#3F3D56"/>
<path d="M301.758 253.44H303.64C303.798 253.44 303.926 253.312 303.926 253.155V252.258C303.926 252.101 303.798 251.973 303.64 251.973H301.758C301.6 251.973 301.472 252.101 301.472 252.258V253.155C301.472 253.312 301.6 253.44 301.758 253.44Z" fill="#3F3D56"/>
<path d="M296.85 253.44H298.732C298.89 253.44 299.018 253.312 299.018 253.155V252.258C299.018 252.101 298.89 251.973 298.732 251.973H296.85C296.692 251.973 296.564 252.101 296.564 252.258V253.155C296.564 253.312 296.692 253.44 296.85 253.44Z" fill="#3F3D56"/>
<path d="M291.942 253.44H293.824C293.982 253.44 294.11 253.312 294.11 253.155V252.258C294.11 252.101 293.982 251.973 293.824 251.973H291.942C291.784 251.973 291.656 252.101 291.656 252.258V253.155C291.656 253.312 291.784 253.44 291.942 253.44Z" fill="#3F3D56"/>
<path d="M365.622 255.885H367.504C367.661 255.885 367.79 255.757 367.79 255.6V254.703C367.79 254.546 367.661 254.418 367.504 254.418H365.622C365.464 254.418 365.335 254.546 365.335 254.703V255.6C365.335 255.757 365.464 255.885 365.622 255.885Z" fill="#3F3D56"/>
<path d="M360.713 255.885H362.595C362.753 255.885 362.881 255.757 362.881 255.6V254.703C362.881 254.546 362.753 254.418 362.595 254.418H360.713C360.555 254.418 360.427 254.546 360.427 254.703V255.6C360.427 255.757 360.555 255.885 360.713 255.885Z" fill="#3F3D56"/>
<path d="M355.805 255.885H357.687C357.845 255.885 357.973 255.757 357.973 255.6V254.703C357.973 254.546 357.845 254.418 357.687 254.418H355.805C355.647 254.418 355.519 254.546 355.519 254.703V255.6C355.519 255.757 355.647 255.885 355.805 255.885Z" fill="#3F3D56"/>
<path d="M350.897 255.885H352.779C352.937 255.885 353.065 255.757 353.065 255.6V254.703C353.065 254.546 352.937 254.418 352.779 254.418H350.897C350.739 254.418 350.611 254.546 350.611 254.703V255.6C350.611 255.757 350.739 255.885 350.897 255.885Z" fill="#3F3D56"/>
<path d="M345.989 255.885H347.871C348.029 255.885 348.157 255.757 348.157 255.6V254.703C348.157 254.546 348.029 254.418 347.871 254.418H345.989C345.831 254.418 345.703 254.546 345.703 254.703V255.6C345.703 255.757 345.831 255.885 345.989 255.885Z" fill="#3F3D56"/>
<path d="M341.081 255.885H342.963C343.121 255.885 343.249 255.757 343.249 255.6V254.703C343.249 254.546 343.121 254.418 342.963 254.418H341.081C340.923 254.418 340.795 254.546 340.795 254.703V255.6C340.795 255.757 340.923 255.885 341.081 255.885Z" fill="#3F3D56"/>
<path d="M336.173 255.885H338.055C338.213 255.885 338.341 255.757 338.341 255.6V254.703C338.341 254.546 338.213 254.418 338.055 254.418H336.173C336.015 254.418 335.887 254.546 335.887 254.703V255.6C335.887 255.757 336.015 255.885 336.173 255.885Z" fill="#3F3D56"/>
<path d="M331.265 255.885H333.147C333.305 255.885 333.433 255.757 333.433 255.6V254.703C333.433 254.546 333.305 254.418 333.147 254.418H331.265C331.107 254.418 330.979 254.546 330.979 254.703V255.6C330.979 255.757 331.107 255.885 331.265 255.885Z" fill="#3F3D56"/>
<path d="M326.356 255.885H328.238C328.396 255.885 328.524 255.757 328.524 255.6V254.703C328.524 254.546 328.396 254.418 328.238 254.418H326.356C326.198 254.418 326.07 254.546 326.07 254.703V255.6C326.07 255.757 326.198 255.885 326.356 255.885Z" fill="#3F3D56"/>
<path d="M321.449 255.885H323.331C323.489 255.885 323.617 255.757 323.617 255.6V254.703C323.617 254.546 323.489 254.418 323.331 254.418H321.449C321.291 254.418 321.163 254.546 321.163 254.703V255.6C321.163 255.757 321.291 255.885 321.449 255.885Z" fill="#3F3D56"/>
<path d="M316.541 255.885H318.422C318.58 255.885 318.708 255.757 318.708 255.6V254.703C318.708 254.546 318.58 254.418 318.422 254.418H316.541C316.383 254.418 316.254 254.546 316.254 254.703V255.6C316.254 255.757 316.383 255.885 316.541 255.885Z" fill="#3F3D56"/>
<path d="M311.632 255.885H313.514C313.672 255.885 313.8 255.757 313.8 255.6V254.703C313.8 254.546 313.672 254.418 313.514 254.418H311.632C311.474 254.418 311.346 254.546 311.346 254.703V255.6C311.346 255.757 311.474 255.885 311.632 255.885Z" fill="#3F3D56"/>
<path d="M306.725 255.885H308.607C308.765 255.885 308.893 255.757 308.893 255.6V254.703C308.893 254.546 308.765 254.418 308.607 254.418H306.725C306.567 254.418 306.439 254.546 306.439 254.703V255.6C306.439 255.757 306.567 255.885 306.725 255.885Z" fill="#3F3D56"/>
<path d="M301.816 255.885H303.698C303.856 255.885 303.984 255.757 303.984 255.6V254.703C303.984 254.546 303.856 254.418 303.698 254.418H301.816C301.658 254.418 301.53 254.546 301.53 254.703V255.6C301.53 255.757 301.658 255.885 301.816 255.885Z" fill="#3F3D56"/>
<path d="M296.908 255.885H298.79C298.948 255.885 299.076 255.757 299.076 255.6V254.703C299.076 254.546 298.948 254.418 298.79 254.418H296.908C296.75 254.418 296.622 254.546 296.622 254.703V255.6C296.622 255.757 296.75 255.885 296.908 255.885Z" fill="#3F3D56"/>
<path d="M292 255.885H293.882C294.04 255.885 294.168 255.757 294.168 255.6V254.703C294.168 254.546 294.04 254.418 293.882 254.418H292C291.842 254.418 291.714 254.546 291.714 254.703V255.6C291.714 255.757 291.842 255.885 292 255.885Z" fill="#3F3D56"/>
<path d="M324.884 258.818H343.944C344.102 258.818 344.23 258.69 344.23 258.533V257.636C344.23 257.479 344.102 257.351 343.944 257.351H324.884C324.726 257.351 324.598 257.479 324.598 257.636V258.533C324.598 258.69 324.726 258.818 324.884 258.818Z" fill="#3F3D56"/>
<path d="M304.691 209.378H303.025C302.519 209.378 302.11 209.786 302.11 210.289C302.11 210.792 302.519 211.2 303.025 211.2H304.691C305.196 211.2 305.605 210.792 305.605 210.289C305.605 209.786 305.196 209.378 304.691 209.378Z" fill="white"/>
<path d="M323.746 209.378H322.08C321.575 209.378 321.165 209.786 321.165 210.289C321.165 210.792 321.575 211.2 322.08 211.2H323.746C324.251 211.2 324.66 210.792 324.66 210.289C324.66 209.786 324.251 209.378 323.746 209.378Z" fill="white"/>
<path d="M329.145 209.378H327.479C326.973 209.378 326.564 209.786 326.564 210.289C326.564 210.792 326.973 211.2 327.479 211.2H329.145C329.65 211.2 330.059 210.792 330.059 210.289C330.059 209.786 329.65 209.378 329.145 209.378Z" fill="white"/>
<path d="M318.563 209.226H308.208C307.702 209.226 307.293 209.634 307.293 210.137C307.293 210.64 307.702 211.048 308.208 211.048H318.563C319.068 211.048 319.477 210.64 319.477 210.137C319.477 209.634 319.068 209.226 318.563 209.226Z" fill="white"/>
<path d="M343.97 209.226H333.614C333.109 209.226 332.7 209.634 332.7 210.137C332.7 210.64 333.109 211.048 333.614 211.048H343.97C344.475 211.048 344.884 210.64 344.884 210.137C344.884 209.634 344.475 209.226 343.97 209.226Z" fill="white"/>
<path d="M309.772 213.491H308.106C307.6 213.491 307.191 213.899 307.191 214.402C307.191 214.905 307.6 215.313 308.106 215.313H309.772C310.277 215.313 310.686 214.905 310.686 214.402C310.686 213.899 310.277 213.491 309.772 213.491Z" fill="white"/>
<path d="M328.827 213.491H327.161C326.656 213.491 326.247 213.899 326.247 214.402C326.247 214.905 326.656 215.313 327.161 215.313H328.827C329.332 215.313 329.742 214.905 329.742 214.402C329.742 213.899 329.332 213.491 328.827 213.491Z" fill="white"/>
<path d="M334.226 213.491H332.56C332.055 213.491 331.646 213.899 331.646 214.402C331.646 214.905 332.055 215.313 332.56 215.313H334.226C334.731 215.313 335.141 214.905 335.141 214.402C335.141 213.899 334.731 213.491 334.226 213.491Z" fill="white"/>
<path d="M323.644 213.339H313.289C312.784 213.339 312.374 213.747 312.374 214.25C312.374 214.753 312.784 215.161 313.289 215.161H323.644C324.149 215.161 324.559 214.753 324.559 214.25C324.559 213.747 324.149 213.339 323.644 213.339Z" fill="white"/>
<path d="M349.051 213.339H338.696C338.191 213.339 337.781 213.747 337.781 214.25C337.781 214.753 338.191 215.161 338.696 215.161H349.051C349.556 215.161 349.966 214.753 349.966 214.25C349.966 213.747 349.556 213.339 349.051 213.339Z" fill="white"/>
<path d="M314.853 217.604H313.187C312.682 217.604 312.272 218.011 312.272 218.515C312.272 219.018 312.682 219.426 313.187 219.426H314.853C315.358 219.426 315.768 219.018 315.768 218.515C315.768 218.011 315.358 217.604 314.853 217.604Z" fill="white"/>
<path d="M333.908 217.604H332.242C331.737 217.604 331.328 218.011 331.328 218.515C331.328 219.018 331.737 219.426 332.242 219.426H333.908C334.414 219.426 334.823 219.018 334.823 218.515C334.823 218.011 334.414 217.604 333.908 217.604Z" fill="white"/>
<path d="M339.308 217.604H337.642C337.137 217.604 336.727 218.011 336.727 218.515C336.727 219.018 337.137 219.426 337.642 219.426H339.308C339.813 219.426 340.222 219.018 340.222 218.515C340.222 218.011 339.813 217.604 339.308 217.604Z" fill="white"/>
<path d="M328.725 217.452H318.37C317.865 217.452 317.456 217.86 317.456 218.363C317.456 218.866 317.865 219.274 318.37 219.274H328.725C329.231 219.274 329.64 218.866 329.64 218.363C329.64 217.86 329.231 217.452 328.725 217.452Z" fill="white"/>
<path d="M354.133 217.452H343.777C343.272 217.452 342.863 217.86 342.863 218.363C342.863 218.866 343.272 219.274 343.777 219.274H354.133C354.638 219.274 355.047 218.866 355.047 218.363C355.047 217.86 354.638 217.452 354.133 217.452Z" fill="white"/>
<path d="M319.935 221.716H318.269C317.764 221.716 317.354 222.124 317.354 222.627C317.354 223.131 317.764 223.539 318.269 223.539H319.935C320.44 223.539 320.849 223.131 320.849 222.627C320.849 222.124 320.44 221.716 319.935 221.716Z" fill="white"/>
<path d="M338.99 221.716H337.324C336.819 221.716 336.409 222.124 336.409 222.627C336.409 223.131 336.819 223.539 337.324 223.539H338.99C339.495 223.539 339.905 223.131 339.905 222.627C339.905 222.124 339.495 221.716 338.99 221.716Z" fill="white"/>
<path d="M344.389 221.716H342.723C342.218 221.716 341.808 222.124 341.808 222.627C341.808 223.131 342.218 223.539 342.723 223.539H344.389C344.894 223.539 345.304 223.131 345.304 222.627C345.304 222.124 344.894 221.716 344.389 221.716Z" fill="white"/>
<path d="M333.807 221.564H323.452C322.947 221.564 322.537 221.972 322.537 222.476C322.537 222.979 322.947 223.387 323.452 223.387H333.807C334.312 223.387 334.722 222.979 334.722 222.476C334.722 221.972 334.312 221.564 333.807 221.564Z" fill="white"/>
<path d="M323.746 238.071H322.08C321.575 238.071 321.165 238.479 321.165 238.982C321.165 239.485 321.575 239.893 322.08 239.893H323.746C324.251 239.893 324.66 239.485 324.66 238.982C324.66 238.479 324.251 238.071 323.746 238.071Z" fill="white"/>
<path d="M329.145 238.071H327.479C326.973 238.071 326.564 238.479 326.564 238.982C326.564 239.485 326.973 239.893 327.479 239.893H329.145C329.65 239.893 330.059 239.485 330.059 238.982C330.059 238.479 329.65 238.071 329.145 238.071Z" fill="white"/>
<path d="M343.97 238.223H333.614C333.109 238.223 332.7 238.631 332.7 239.134C332.7 239.637 333.109 240.045 333.614 240.045H343.97C344.475 240.045 344.884 239.637 344.884 239.134C344.884 238.631 344.475 238.223 343.97 238.223Z" fill="white"/>
<path d="M304.691 238.071H303.025C302.519 238.071 302.11 238.479 302.11 238.982C302.11 239.485 302.519 239.893 303.025 239.893H304.691C305.196 239.893 305.605 239.485 305.605 238.982C305.605 238.479 305.196 238.071 304.691 238.071Z" fill="white"/>
<path d="M318.563 238.223H308.208C307.702 238.223 307.293 238.631 307.293 239.134C307.293 239.637 307.702 240.045 308.208 240.045H318.563C319.068 240.045 319.477 239.637 319.477 239.134C319.477 238.631 319.068 238.223 318.563 238.223Z" fill="white"/>
<path d="M309.772 233.958H308.106C307.6 233.958 307.191 234.366 307.191 234.869C307.191 235.372 307.6 235.78 308.106 235.78H309.772C310.277 235.78 310.686 235.372 310.686 234.869C310.686 234.366 310.277 233.958 309.772 233.958Z" fill="white"/>
<path d="M328.827 233.958H327.161C326.656 233.958 326.247 234.366 326.247 234.869C326.247 235.372 326.656 235.78 327.161 235.78H328.827C329.332 235.78 329.742 235.372 329.742 234.869C329.742 234.366 329.332 233.958 328.827 233.958Z" fill="white"/>
<path d="M334.226 233.958H332.56C332.055 233.958 331.646 234.366 331.646 234.869C331.646 235.372 332.055 235.78 332.56 235.78H334.226C334.731 235.78 335.141 235.372 335.141 234.869C335.141 234.366 334.731 233.958 334.226 233.958Z" fill="white"/>
<path d="M323.644 234.11H313.289C312.784 234.11 312.374 234.518 312.374 235.021C312.374 235.524 312.784 235.932 313.289 235.932H323.644C324.149 235.932 324.559 235.524 324.559 235.021C324.559 234.518 324.149 234.11 323.644 234.11Z" fill="white"/>
<path d="M314.853 229.845H313.187C312.682 229.845 312.272 230.253 312.272 230.756C312.272 231.26 312.682 231.667 313.187 231.667H314.853C315.358 231.667 315.768 231.26 315.768 230.756C315.768 230.253 315.358 229.845 314.853 229.845Z" fill="white"/>
<path d="M333.908 229.845H332.242C331.737 229.845 331.328 230.253 331.328 230.756C331.328 231.26 331.737 231.667 332.242 231.667H333.908C334.414 231.667 334.823 231.26 334.823 230.756C334.823 230.253 334.414 229.845 333.908 229.845Z" fill="white"/>
<path d="M339.308 229.845H337.642C337.137 229.845 336.727 230.253 336.727 230.756C336.727 231.26 337.137 231.667 337.642 231.667H339.308C339.813 231.667 340.222 231.26 340.222 230.756C340.222 230.253 339.813 229.845 339.308 229.845Z" fill="white"/>
<path d="M328.725 229.997H318.37C317.865 229.997 317.456 230.405 317.456 230.908C317.456 231.411 317.865 231.819 318.37 231.819H328.725C329.231 231.819 329.64 231.411 329.64 230.908C329.64 230.405 329.231 229.997 328.725 229.997Z" fill="white"/>
<path d="M319.935 225.732H318.269C317.764 225.732 317.354 226.14 317.354 226.644C317.354 227.147 317.764 227.555 318.269 227.555H319.935C320.44 227.555 320.849 227.147 320.849 226.644C320.849 226.14 320.44 225.732 319.935 225.732Z" fill="white"/>
<path d="M338.99 225.732H337.324C336.819 225.732 336.409 226.14 336.409 226.644C336.409 227.147 336.819 227.555 337.324 227.555H338.99C339.495 227.555 339.905 227.147 339.905 226.644C339.905 226.14 339.495 225.732 338.99 225.732Z" fill="white"/>
<path d="M344.389 225.732H342.723C342.218 225.732 341.808 226.14 341.808 226.644C341.808 227.147 342.218 227.555 342.723 227.555H344.389C344.894 227.555 345.304 227.147 345.304 226.644C345.304 226.14 344.894 225.732 344.389 225.732Z" fill="white"/>
<path d="M333.807 225.884H323.452C322.947 225.884 322.537 226.292 322.537 226.795C322.537 227.299 322.947 227.707 323.452 227.707H333.807C334.312 227.707 334.722 227.299 334.722 226.795C334.722 226.292 334.312 225.884 333.807 225.884Z" fill="white"/>
<path d="M295.832 286.271L288.011 273.955L312.561 254.459L322.695 243.276C324.011 241.823 325.687 240.74 327.556 240.134C329.424 239.529 331.42 239.423 333.342 239.826C335.265 240.229 337.048 241.128 338.512 242.433C339.977 243.738 341.072 245.403 341.688 247.261C342.602 250.015 342.405 253.015 341.141 255.628C339.876 258.24 337.642 260.261 334.909 261.264L318.886 267.144L295.832 286.271Z" fill="#FFB6B6"/>
<path d="M112.312 196.972V256.831H154.409V196.972C154.409 196.541 154.271 196.122 154.015 195.775C153.759 195.428 153.398 195.173 152.985 195.046C152.79 194.982 152.586 194.95 152.381 194.952H114.345C114.078 194.952 113.814 195.004 113.567 195.105C113.321 195.206 113.097 195.355 112.908 195.542C112.719 195.73 112.569 195.953 112.467 196.198C112.365 196.443 112.312 196.706 112.312 196.972ZM128.74 217.54C128.751 216.36 129.23 215.232 130.071 214.401C130.913 213.57 132.049 213.104 133.234 213.104C134.419 213.104 135.556 213.57 136.397 214.401C137.239 215.232 137.717 216.36 137.728 217.54V224.485C137.722 225.668 137.246 226.801 136.404 227.636C135.562 228.47 134.422 228.939 133.234 228.939C132.046 228.939 130.907 228.47 130.065 227.636C129.222 226.801 128.746 225.668 128.74 224.485V217.54Z" fill="#2F2E41"/>
<path d="M112.183 254.917V260.689C112.184 260.988 112.303 261.275 112.515 261.487C112.726 261.699 113.013 261.819 113.313 261.822H153.407C153.707 261.82 153.995 261.7 154.207 261.488C154.419 261.276 154.538 260.989 154.538 260.689V254.917H112.183Z" fill="#3F3D56"/>
<path d="M46.0869 106.786V216.08C46.088 217.473 46.6439 218.809 47.6326 219.794C48.6213 220.778 49.9619 221.332 51.36 221.333H213.948C215.346 221.332 216.687 220.778 217.676 219.794C218.664 218.809 219.22 217.473 219.221 216.08V106.786C219.218 105.394 218.661 104.06 217.673 103.077C216.684 102.094 215.345 101.54 213.948 101.539H51.36C49.9631 101.54 48.6238 102.094 47.6354 103.077C46.6471 104.06 46.0902 105.394 46.0869 106.786Z" fill="#3F3D56"/>
<path d="M49.9014 108.146V214.732C49.9027 215.477 50.2 216.19 50.7282 216.716C51.2564 217.242 51.9725 217.539 52.7196 217.54H212.595C213.342 217.539 214.058 217.242 214.586 216.716C215.114 216.19 215.412 215.477 215.413 214.732V108.146C215.413 107.401 215.116 106.686 214.588 106.159C214.06 105.631 213.343 105.334 212.595 105.333H52.7196C51.9716 105.334 51.2549 105.631 50.7265 106.159C50.1982 106.686 49.9014 107.401 49.9014 108.146Z" fill="white"/>
<path d="M79.5713 261.43C79.734 261.634 79.9408 261.797 80.1762 261.91C80.4117 262.022 80.6696 262.079 80.9305 262.078H176.046C176.306 262.078 176.563 262.02 176.798 261.908C177.032 261.797 177.239 261.634 177.403 261.433C177.567 261.232 177.684 260.997 177.745 260.745C177.806 260.493 177.81 260.231 177.757 259.977L176.28 252.991C176.219 252.706 176.087 252.441 175.897 252.219C175.707 251.998 175.464 251.828 175.191 251.724C174.993 251.647 174.782 251.607 174.57 251.607H82.4012C82.1886 251.607 81.978 251.647 81.7801 251.724C81.5068 251.828 81.2639 251.998 81.0736 252.219C80.8833 252.441 80.7515 252.706 80.6903 252.991L79.2139 259.977C79.1613 260.23 79.1661 260.492 79.228 260.744C79.2898 260.995 79.4071 261.23 79.5713 261.43Z" fill="#2F2E41"/>
<path d="M207.406 120.015H57.8118C57.6563 120.012 57.5084 119.948 57.3996 119.837C57.2909 119.726 57.23 119.578 57.23 119.423C57.23 119.268 57.2909 119.119 57.3996 119.008C57.5084 118.897 57.6563 118.834 57.8118 118.83H207.406C207.562 118.834 207.71 118.897 207.819 119.008C207.927 119.119 207.988 119.268 207.988 119.423C207.988 119.578 207.927 119.726 207.819 119.837C207.71 119.948 207.562 120.012 207.406 120.015Z" fill="#3F3D56"/>
<path d="M67.9947 115.804C69.9201 115.804 71.481 114.215 71.481 112.254C71.481 110.293 69.9201 108.704 67.9947 108.704C66.0692 108.704 64.5083 110.293 64.5083 112.254C64.5083 114.215 66.0692 115.804 67.9947 115.804Z" fill="#3F3D56"/>
<path d="M80.0386 115.804C81.9641 115.804 83.525 114.215 83.525 112.254C83.525 110.293 81.9641 108.704 80.0386 108.704C78.1131 108.704 76.5522 110.293 76.5522 112.254C76.5522 114.215 78.1131 115.804 80.0386 115.804Z" fill="#3F3D56"/>
<path d="M92.0826 115.804C94.008 115.804 95.5689 114.215 95.5689 112.254C95.5689 110.293 94.008 108.704 92.0826 108.704C90.1571 108.704 88.5962 110.293 88.5962 112.254C88.5962 114.215 90.1571 115.804 92.0826 115.804Z" fill="#3F3D56"/>
<path d="M200.154 109.582H191.6C191.431 109.585 191.27 109.655 191.152 109.776C191.033 109.896 190.967 110.058 190.967 110.226C190.967 110.395 191.033 110.557 191.152 110.677C191.27 110.798 191.431 110.867 191.6 110.871H200.154C200.324 110.869 200.486 110.8 200.606 110.679C200.725 110.559 200.792 110.396 200.792 110.226C200.792 110.057 200.725 109.894 200.606 109.774C200.486 109.653 200.324 109.584 200.154 109.582Z" fill="#3F3D56"/>
<path d="M200.154 112.003H191.6C191.43 112.007 191.269 112.077 191.151 112.197C191.033 112.318 190.966 112.48 190.966 112.648C190.966 112.817 191.033 112.979 191.151 113.099C191.269 113.22 191.43 113.29 191.6 113.293H200.154C200.324 113.291 200.487 113.222 200.607 113.102C200.726 112.981 200.793 112.818 200.793 112.648C200.793 112.479 200.726 112.316 200.607 112.195C200.487 112.074 200.324 112.005 200.154 112.003Z" fill="#3F3D56"/>
<path d="M200.154 114.426H191.6C191.431 114.43 191.27 114.499 191.152 114.62C191.033 114.74 190.967 114.902 190.967 115.071C190.967 115.239 191.033 115.401 191.152 115.522C191.27 115.642 191.431 115.712 191.6 115.716H200.154C200.324 115.713 200.486 115.644 200.606 115.524C200.725 115.403 200.792 115.24 200.792 115.071C200.792 114.901 200.725 114.739 200.606 114.618C200.486 114.497 200.324 114.428 200.154 114.426Z" fill="#3F3D56"/>
<path d="M406.379 257.45C406.638 258.199 407.127 258.847 407.778 259.301C408.429 259.755 409.208 259.992 410.002 259.978L425.524 259.58C426.324 259.564 427.098 259.291 427.73 258.801C428.361 258.311 428.817 257.631 429.028 256.862L431.225 233.465C432.004 233.817 432.852 233.99 433.708 233.973C434.451 233.954 435.183 233.79 435.862 233.49C436.542 233.189 437.155 232.759 437.667 232.222C438.18 231.685 438.581 231.053 438.848 230.362C439.115 229.671 439.243 228.935 439.224 228.194C439.206 227.454 439.041 226.725 438.739 226.048C438.438 225.371 438.005 224.76 437.466 224.25C436.928 223.74 436.293 223.34 435.6 223.074C434.906 222.808 434.167 222.68 433.423 222.699C433.082 222.698 432.741 222.733 432.406 222.804C432.043 222.412 431.601 222.101 431.109 221.889C430.617 221.678 430.086 221.571 429.55 221.577L405.675 222.191C405.477 222.198 405.28 222.223 405.086 222.264C404.562 222.361 404.065 222.569 403.629 222.873C403.193 223.178 402.827 223.572 402.557 224.029C402.286 224.486 402.117 224.995 402.061 225.523C402.005 226.051 402.062 226.584 402.23 227.088L406.379 257.45ZM431.675 231.876L433.238 226.301C433.416 225.657 433.42 224.977 433.25 224.331C433.326 224.331 433.393 224.295 433.468 224.295C434.54 224.273 435.577 224.675 436.351 225.413C437.126 226.151 437.575 227.166 437.6 228.233C437.625 229.301 437.224 230.334 436.485 231.108C435.746 231.881 434.73 232.331 433.658 232.359C432.965 232.381 432.28 232.214 431.675 231.876Z" fill="#2F2E41"/>
<path d="M405.086 222.264C405.595 225.161 411.314 227.198 418.19 226.844C424.514 226.554 429.684 224.342 430.631 221.721C430.281 221.617 429.916 221.569 429.551 221.577L405.675 222.191C405.477 222.198 405.28 222.223 405.086 222.264Z" fill="#3F3D56"/>
<path d="M419.45 244.593C419.482 244.585 419.512 244.572 419.539 244.555L422.909 242.357C422.95 242.33 422.984 242.294 423.007 242.251C423.03 242.209 423.042 242.161 423.042 242.113C423.042 242.064 423.03 242.017 423.007 241.974C422.984 241.931 422.95 241.895 422.91 241.869L419.406 239.583C419.374 239.561 419.338 239.547 419.3 239.539C419.262 239.532 419.223 239.532 419.185 239.54C419.148 239.548 419.112 239.563 419.08 239.585C419.048 239.606 419.021 239.634 419 239.666C418.978 239.698 418.964 239.734 418.957 239.772C418.95 239.81 418.95 239.848 418.958 239.886C418.966 239.923 418.981 239.959 419.003 239.991C419.025 240.022 419.053 240.05 419.085 240.07L422.214 242.112L419.218 244.066C419.16 244.104 419.117 244.161 419.097 244.227C419.078 244.293 419.082 244.364 419.11 244.428C419.138 244.491 419.187 244.542 419.25 244.573C419.312 244.603 419.383 244.61 419.45 244.593Z" fill="#8B5CF6"/>
<path d="M414.127 244.838C414.183 244.823 414.234 244.793 414.273 244.749C414.312 244.706 414.337 244.652 414.345 244.594C414.353 244.537 414.343 244.478 414.318 244.426C414.292 244.374 414.251 244.331 414.2 244.302L411.093 242.527L414.097 240.305C414.127 240.282 414.153 240.253 414.173 240.221C414.193 240.188 414.206 240.151 414.212 240.113C414.217 240.076 414.215 240.037 414.206 240C414.196 239.963 414.18 239.928 414.157 239.897C414.134 239.866 414.105 239.84 414.072 239.821C414.039 239.801 414.003 239.788 413.965 239.782C413.927 239.777 413.888 239.779 413.851 239.788C413.813 239.797 413.778 239.814 413.747 239.837L410.385 242.325C410.346 242.354 410.315 242.392 410.294 242.436C410.274 242.479 410.264 242.528 410.267 242.576C410.27 242.624 410.285 242.671 410.311 242.713C410.336 242.754 410.372 242.788 410.414 242.812L413.909 244.808C413.975 244.846 414.053 244.856 414.127 244.838Z" fill="#8B5CF6"/>
<path d="M419.115 246.519C419.144 246.512 419.171 246.501 419.195 246.486C419.228 246.466 419.257 246.44 419.28 246.409C419.303 246.378 419.319 246.343 419.328 246.305C419.337 246.268 419.339 246.229 419.333 246.192C419.327 246.154 419.314 246.117 419.294 246.085L414.515 238.259C414.475 238.193 414.41 238.145 414.334 238.127C414.259 238.109 414.179 238.122 414.113 238.162C414.046 238.202 413.999 238.267 413.98 238.342C413.962 238.417 413.974 238.496 414.015 238.563L418.793 246.388C418.826 246.442 418.875 246.483 418.932 246.507C418.99 246.53 419.055 246.535 419.115 246.519Z" fill="#8B5CF6"/>
<path d="M150.483 152.232H124.592C123.535 152.232 122.679 153.085 122.679 154.138V156.657C122.679 157.71 123.535 158.563 124.592 158.563H150.483C151.539 158.563 152.396 157.71 152.396 156.657V154.138C152.396 153.085 151.539 152.232 150.483 152.232Z" fill="#8B5CF6"/>
<path d="M165.575 164.893H109.499C108.443 164.893 107.587 165.746 107.587 166.798V169.318C107.587 170.37 108.443 171.223 109.499 171.223H165.575C166.631 171.223 167.487 170.37 167.487 169.318V166.798C167.487 165.746 166.631 164.893 165.575 164.893Z" fill="#E6E6E6"/>
<path d="M165.575 177.553H109.499C108.443 177.553 107.587 178.406 107.587 179.458V181.978C107.587 183.03 108.443 183.883 109.499 183.883H165.575C166.631 183.883 167.487 183.03 167.487 181.978V179.458C167.487 178.406 166.631 177.553 165.575 177.553Z" fill="#E6E6E6"/>
<path d="M170.329 219.947L170.456 220.347L170.462 220.36L174.285 231.938L178.683 245.281L186.958 270.356L187.038 274.251V274.264L187.653 305.597L185.949 309.845L187.867 316.809C187.867 316.809 186.985 306.282 182.252 312.328C179.572 315.763 176.438 319.279 173.864 322.575C177.614 324.086 181.424 325.453 185.294 326.676C186.129 326.942 186.971 327.195 187.813 327.448C187.994 327.502 188.174 327.555 188.355 327.608C201.183 331.387 214.445 333.511 227.816 333.927C228.511 333.947 229.193 333.96 229.854 333.973C230.088 333.98 230.316 333.987 230.543 333.987C231.291 333.993 232.033 334 232.782 334C234.292 334 235.796 333.978 237.293 333.933C248.375 333.622 259.391 332.138 270.158 329.506C270.084 325.078 269.884 319.905 269.596 314.378C269.462 311.669 266.461 308.732 266.281 305.896C266.154 303.765 268.848 301.761 268.707 299.597C267.798 286.274 266.662 291.389 265.82 281.954C265.733 281.029 265.653 280.143 265.579 279.298C265.038 273.239 264.664 269.45 264.664 269.45L268.259 246.873L273.907 211.425L273.473 210.712L272.985 210.473L243.195 195.785L241.578 191.657C241.106 190.467 240.289 189.446 239.23 188.723C238.171 188.001 236.919 187.61 235.636 187.602L216.012 187.522C214.994 187.517 213.989 187.755 213.081 188.215C212.173 188.674 211.389 189.343 210.792 190.165L205.479 197.496L170.329 219.947Z" fill="#3F3D56"/>
<path d="M191.483 264.776L187.038 274.251L184.004 280.723L178.783 307.948L176.17 310.711L173.931 300.929L150.496 306.113C149.728 301.858 150.29 306.256 149.816 301.589C149.95 301.456 150.09 301.323 150.23 301.19C150.605 300.843 150.919 300.517 150.912 300.204C150.645 284.105 151.447 256.707 158.144 240.108C159.193 237.398 160.576 234.828 162.261 232.458C162.395 232.278 162.522 232.098 162.649 231.919C165.737 227.611 167.688 223.37 170.455 220.353V220.347C170.473 220.333 170.488 220.317 170.502 220.3C170.512 220.295 170.521 220.288 170.529 220.28L189.538 210.24L190.353 233.064L190.935 249.469L191.483 264.776Z" fill="#3F3D56"/>
<path d="M260.024 267.467L265.576 279.301L267.514 283.422L272.733 310.644L275.338 313.401L277.582 303.622L278.636 303.406L297.654 299.483L303.197 317.019C304.446 314.945 304.938 312.506 304.59 310.112C304.242 307.719 303.075 305.519 301.286 303.884C300.908 303.542 300.592 303.21 300.601 302.896C300.917 283.961 299.754 249.385 289.254 235.154C285.919 230.638 283.918 226.14 281.007 222.997C280.998 222.988 280.998 222.979 280.989 222.979L273.904 211.424L273.472 210.715L272.985 210.472L260.024 267.467Z" fill="#3F3D56"/>
<path d="M226.391 181.959C240.809 181.959 252.498 170.315 252.498 155.952C252.498 141.589 240.809 129.946 226.391 129.946C211.973 129.946 200.284 141.589 200.284 155.952C200.284 170.315 211.973 181.959 226.391 181.959Z" fill="#FFB6B6"/>
<path d="M261.677 137.787C261.475 137.572 261.231 137.399 260.96 137.28C260.689 137.16 260.397 137.097 260.101 137.092L260.494 136.007C260.622 135.665 260.656 135.295 260.594 134.935C260.531 134.576 260.374 134.239 260.138 133.96C259.902 133.681 259.596 133.469 259.25 133.347C258.905 133.225 258.534 133.196 258.174 133.264L256.744 133.538L256.879 132.587C256.93 132.232 256.889 131.871 256.757 131.537C256.626 131.204 256.41 130.91 256.131 130.685C255.851 130.46 255.517 130.312 255.163 130.254C254.808 130.197 254.444 130.232 254.107 130.357C253.801 130.477 253.471 130.527 253.143 130.504C252.814 130.481 252.495 130.385 252.209 130.223C251.922 130.066 251.672 129.848 251.478 129.585C251.283 129.322 251.149 129.02 251.084 128.699L250.586 126.306L250.533 126.178C248.108 122.151 243.444 119.221 237.737 118.147C232.657 117.184 227.449 117.674 222.428 118.135C220.436 118.322 218.186 118.532 216.311 119.676C214.717 120.657 213.37 122.618 213.645 124.596C208.694 123.085 203.386 126.102 200.755 129.908C197.638 134.437 197.128 140.11 197.046 144.546C196.824 155.04 198.997 163.625 203.491 170.069C203.819 170.536 203.901 171.51 204.552 171.837L204.417 171.621C205.143 171.983 205.882 172.567 205.606 173.191C204.815 174.989 210.071 178.964 213.774 180.277C220.529 182.676 229.511 182.471 235.827 181.608L236.05 180.119C238.329 179.81 239.934 179.22 240.386 178.298C241.182 177.621 241.862 177.014 242.454 176.454L242.46 176.448C242.471 176.436 242.495 176.419 242.506 176.407C245.36 173.682 246.022 172.129 246.321 169.765C246.608 167.448 246.098 165.096 245.577 162.977C256.556 164.67 241.253 151.328 251.483 148.748C251.6 148.712 251.719 148.683 251.84 148.66C252.139 148.59 252.438 148.52 252.725 148.439C254.109 148.064 255.434 147.501 256.662 146.763C259.521 145.03 260.464 142.73 261.941 140.139C262.154 139.77 262.243 139.343 262.196 138.92C262.148 138.497 261.967 138.1 261.677 137.787Z" fill="#2F2E41"/>
<path d="M318.727 269.319C318.721 270.34 318.709 271.77 318.662 273.539C318.656 273.784 318.65 274.035 318.645 274.291C318.568 277.542 318.492 280.268 318.369 283.297C318.363 283.507 318.357 283.712 318.346 283.922C318.182 288.147 317.924 293.068 317.479 300.859C316.652 315.252 315.211 302.838 313.764 307.887C313.694 308.138 313.617 308.435 313.547 308.785C313.328 310.056 312.958 311.296 312.446 312.48C311.678 312.935 310.887 313.373 310.108 313.811C307.887 315.042 305.632 316.227 303.358 317.353C302.081 317.984 300.798 318.602 299.509 319.198C299.304 319.291 299.105 319.385 298.906 319.472C292.305 322.513 285.502 325.099 278.545 327.211C277.186 327.62 275.833 328.017 274.462 328.384C273.032 328.781 271.602 329.155 270.155 329.505C259.389 332.138 248.373 333.623 237.292 333.935C235.798 333.982 234.292 333.999 232.781 333.999C232.031 333.999 231.292 333.993 230.542 333.988C230.314 333.988 230.085 333.982 229.857 333.976C229.195 333.958 228.509 333.947 227.818 333.929C214.447 333.514 201.185 331.389 188.357 327.608L187.813 327.451C186.969 327.194 186.131 326.943 185.293 326.674C181.426 325.455 177.616 324.089 173.862 322.577C170.997 321.427 168.165 320.194 165.367 318.877C165.341 318.87 165.317 318.858 165.296 318.842C164.71 318.573 164.119 318.293 163.533 318.007C163.457 317.966 163.375 317.925 163.292 317.885C161.107 316.822 158.945 315.709 156.807 314.546C155.008 310.431 152.477 309.643 150.906 306.025C150.449 304.95 150.119 303.825 149.922 302.675C149.922 302.663 149.916 302.651 149.916 302.634C150.08 304.805 149.219 298.782 149.91 302.61C149.905 302.54 149.899 302.464 149.893 302.377C149.875 302.167 149.852 301.91 149.817 301.589C147.807 282.042 147.936 259.689 147.063 241.268C147.004 240.078 146.944 238.938 146.881 237.848C146.864 237.486 146.84 237.13 146.817 236.78C146.858 236.675 146.905 236.564 146.958 236.459C146.969 236.429 146.982 236.4 146.999 236.372C147.016 236.335 147.035 236.3 147.057 236.267C147.069 236.249 147.086 236.226 147.098 236.208C147.107 236.188 147.116 236.169 147.127 236.15C147.18 236.068 147.239 235.981 147.303 235.899C147.332 235.864 147.356 235.835 147.385 235.805C147.405 235.776 147.429 235.748 147.456 235.724C147.474 235.696 147.495 235.67 147.52 235.648C147.543 235.625 147.567 235.595 147.596 235.566C147.609 235.548 147.625 235.532 147.643 235.519C147.689 235.466 147.74 235.418 147.795 235.374C148.004 235.182 148.228 235.006 148.463 234.848C148.545 234.796 148.633 234.743 148.715 234.685C149.306 234.333 149.927 234.036 150.573 233.798C150.795 233.716 151.018 233.64 151.258 233.558C151.346 233.535 151.428 233.506 151.516 233.477C151.645 233.436 151.774 233.395 151.908 233.366C152.576 233.167 153.297 232.998 154.076 232.84C154.17 232.823 154.27 232.805 154.369 232.782C154.51 232.753 154.656 232.73 154.803 232.706C155.002 232.671 155.207 232.636 155.412 232.601C157.152 232.327 159.127 232.123 161.306 231.988C161.511 231.977 161.716 231.965 161.921 231.953C162.162 231.942 162.402 231.93 162.648 231.918C162.853 231.907 163.064 231.901 163.275 231.895C163.48 231.883 163.691 231.877 163.908 231.872C164.499 231.854 165.109 231.837 165.73 231.825C167.499 231.79 169.362 231.802 171.319 231.842C172.228 231.866 173.153 231.889 174.102 231.93C174.167 231.93 174.225 231.936 174.284 231.936C175.11 231.965 175.942 232 176.798 232.047C177.395 232.076 177.999 232.105 178.602 232.14C179.17 232.175 179.745 232.21 180.325 232.251C180.776 232.274 181.227 232.309 181.684 232.339C182.071 232.368 182.457 232.397 182.844 232.42L183.371 232.455C183.658 232.479 183.946 232.496 184.238 232.525C184.883 232.578 185.527 232.63 186.184 232.683C186.834 232.741 187.496 232.8 188.158 232.858C188.82 232.916 189.488 232.981 190.156 233.045C190.226 233.051 190.291 233.056 190.355 233.062C190.965 233.127 191.574 233.185 192.189 233.249C192.33 233.261 192.476 233.272 192.617 233.29C193.203 233.349 193.801 233.417 194.393 233.48C194.575 233.5 194.756 233.518 194.938 233.538C195.402 233.589 195.859 233.632 196.326 233.687C196.941 233.757 197.568 233.821 198.177 233.903C198.652 233.955 199.126 234.008 199.601 234.066C200.345 234.154 201.101 234.247 201.857 234.346C202.144 234.381 202.431 234.416 202.718 234.457C204.874 234.726 207.053 235.023 209.268 235.333C212.625 235.805 216.035 236.319 219.469 236.874C222.908 237.428 226.367 238.014 229.845 238.63C230.724 238.788 231.603 238.945 232.488 239.109C232.886 239.185 233.284 239.261 233.683 239.337C234.362 239.459 235.042 239.587 235.722 239.716C236.401 239.844 237.081 239.973 237.761 240.107C238.569 240.265 239.384 240.422 240.192 240.58C245.518 241.63 250.815 242.751 255.982 243.924C256.832 244.117 257.681 244.315 258.525 244.508C260.212 244.899 261.884 245.296 263.54 245.698C263.997 245.803 264.449 245.914 264.9 246.025C266.025 246.305 267.15 246.585 268.257 246.871L268.45 246.924C269.265 247.122 270.061 247.327 270.858 247.537C272.739 248.027 274.589 248.523 276.407 249.025C277.614 249.358 278.807 249.694 279.987 250.035C281.75 250.543 283.479 251.056 285.16 251.576C285.576 251.704 285.992 251.833 286.402 251.955C287.633 252.334 288.845 252.72 290.023 253.105C290.961 253.408 291.875 253.718 292.777 254.027C293.679 254.336 294.564 254.646 295.431 254.955C295.988 255.154 296.538 255.364 297.089 255.562C297.88 255.854 298.659 256.146 299.421 256.438C299.655 256.525 299.884 256.618 300.112 256.706C300.259 256.77 300.399 256.823 300.54 256.881C300.815 256.992 301.097 257.097 301.366 257.208C301.642 257.313 301.911 257.424 302.181 257.541C302.444 257.646 302.714 257.757 302.972 257.867C303.235 257.973 303.493 258.083 303.751 258.2C303.968 258.288 304.179 258.381 304.384 258.475C304.8 258.655 305.216 258.836 305.62 259.023C305.819 259.117 306.018 259.204 306.217 259.297L306.675 259.508C306.739 259.543 306.803 259.572 306.868 259.601C307.014 259.671 307.167 259.747 307.313 259.817C307.653 259.974 307.987 260.144 308.315 260.301C308.754 260.523 309.182 260.745 309.592 260.961C310.008 261.183 310.413 261.404 310.799 261.62C310.864 261.655 310.922 261.69 310.987 261.725C311.075 261.772 311.163 261.825 311.25 261.871C311.549 262.041 311.836 262.216 312.123 262.385C312.686 262.729 313.219 263.068 313.717 263.406C313.828 263.482 313.934 263.558 314.045 263.628C314.414 263.891 314.766 264.148 315.094 264.41C315.094 264.416 315.094 264.416 315.1 264.416C315.211 264.498 315.317 264.585 315.422 264.667C315.51 264.749 315.604 264.819 315.692 264.901C315.996 265.163 316.277 265.414 316.535 265.671C316.622 265.75 316.704 265.834 316.781 265.922C316.815 265.95 316.847 265.981 316.875 266.015C316.992 266.132 317.098 266.249 317.197 266.365C317.213 266.381 317.227 266.399 317.238 266.418C317.379 266.581 317.508 266.745 317.631 266.908C317.689 266.99 317.754 267.072 317.807 267.153C317.877 267.253 317.947 267.358 318.006 267.457C318.059 267.539 318.105 267.626 318.152 267.708C318.277 267.918 318.383 268.139 318.469 268.367C318.535 268.522 318.587 268.682 318.627 268.846C318.671 269.001 318.705 269.159 318.727 269.319Z" fill="#2F2E41"/>
<path opacity="0.2" d="M318.727 269.319C318.721 270.341 318.709 271.771 318.662 273.539C318.656 273.784 318.645 274.035 318.639 274.292C318.58 276.772 318.492 279.837 318.369 283.298C318.363 283.508 318.358 283.712 318.346 283.922C318.182 288.148 317.924 293.068 317.479 300.86C316.653 315.253 315.211 302.838 313.764 307.887C309.745 305.424 305.339 302.844 300.628 300.194C299.779 299.716 298.921 299.235 298.056 298.753C288.635 293.517 278.112 288.031 267.126 282.597C266.693 282.381 266.253 282.165 265.82 281.955C240.655 269.564 213.188 257.512 190.935 249.469C186.641 247.917 182.539 246.516 178.684 245.284C170.564 242.699 163.544 240.889 158.142 240.107C152.518 239.29 148.633 239.582 147.063 241.269C147.004 240.078 146.944 238.938 146.881 237.849C146.858 237.487 146.834 237.131 146.811 236.781C146.847 236.684 146.894 236.593 146.94 236.5C146.946 236.487 146.951 236.473 146.958 236.46C146.969 236.429 146.982 236.4 146.999 236.372C147.016 236.336 147.035 236.301 147.057 236.267C147.076 236.226 147.1 236.186 147.127 236.15C147.18 236.068 147.239 235.981 147.303 235.899C147.351 235.838 147.401 235.78 147.456 235.724C147.474 235.696 147.495 235.67 147.52 235.648C147.543 235.625 147.567 235.596 147.596 235.566C147.609 235.548 147.625 235.532 147.643 235.52C147.689 235.467 147.74 235.418 147.795 235.374C148.004 235.182 148.228 235.007 148.463 234.849C148.545 234.796 148.633 234.744 148.715 234.685C149.306 234.333 149.927 234.036 150.573 233.798C150.795 233.716 151.018 233.64 151.258 233.559C151.346 233.535 151.428 233.506 151.516 233.477C151.645 233.436 151.774 233.395 151.908 233.366C152.576 233.168 153.297 232.998 154.076 232.841C154.311 232.794 154.557 232.747 154.803 232.707C155.002 232.672 155.207 232.637 155.412 232.602C157.152 232.327 159.127 232.123 161.306 231.989C161.511 231.977 161.716 231.965 161.921 231.954C162.162 231.942 162.402 231.93 162.648 231.919C162.853 231.907 163.064 231.901 163.275 231.895C163.48 231.884 163.691 231.878 163.908 231.872C164.499 231.854 165.109 231.837 165.73 231.825C167.499 231.796 169.362 231.808 171.319 231.849C172.228 231.866 173.153 231.895 174.102 231.936C174.161 231.936 174.225 231.942 174.284 231.942C175.11 231.965 175.948 232.006 176.798 232.047C177.395 232.076 177.999 232.105 178.602 232.14C179.17 232.175 179.745 232.21 180.325 232.251C180.776 232.275 181.227 232.31 181.684 232.339C182.071 232.368 182.457 232.397 182.844 232.421C183.307 232.456 183.77 232.491 184.238 232.526C184.883 232.578 185.527 232.631 186.184 232.683C186.834 232.742 187.496 232.8 188.158 232.858C188.82 232.917 189.488 232.981 190.156 233.045C190.226 233.051 190.291 233.057 190.355 233.063C190.965 233.127 191.574 233.185 192.189 233.249C195.599 233.594 199.109 233.996 202.718 234.458C204.874 234.732 207.057 235.026 209.268 235.339C212.625 235.812 216.035 236.325 219.469 236.874C222.908 237.428 226.367 238.014 229.845 238.631C230.724 238.788 231.603 238.946 232.488 239.109C233.566 239.308 234.644 239.51 235.722 239.716C236.401 239.845 237.081 239.973 237.761 240.107C238.569 240.265 239.384 240.423 240.192 240.58C245.518 241.631 250.815 242.751 255.982 243.924C256.832 244.117 257.681 244.315 258.525 244.508C260.212 244.899 261.884 245.296 263.54 245.699C263.997 245.81 264.449 245.92 264.9 246.031C266.031 246.312 267.15 246.592 268.257 246.872V246.878C268.321 246.889 268.386 246.907 268.45 246.924C269.259 247.129 270.062 247.333 270.858 247.543C272.739 248.033 274.589 248.527 276.407 249.026C277.614 249.364 278.809 249.697 279.987 250.035C281.75 250.549 283.479 251.062 285.16 251.576C285.576 251.705 285.992 251.833 286.402 251.955C287.633 252.341 288.84 252.724 290.023 253.105C290.961 253.409 291.875 253.718 292.777 254.027C293.679 254.337 294.564 254.646 295.431 254.955C295.994 255.154 296.544 255.358 297.089 255.557C297.886 255.848 298.659 256.14 299.421 256.438C299.655 256.525 299.884 256.619 300.112 256.706C300.54 256.87 300.956 257.039 301.366 257.208C301.642 257.313 301.911 257.424 302.181 257.541C302.444 257.646 302.714 257.757 302.972 257.868C303.235 257.973 303.493 258.084 303.751 258.201C303.968 258.288 304.179 258.381 304.384 258.475C304.8 258.656 305.216 258.837 305.62 259.024C305.819 259.117 306.018 259.204 306.218 259.298L306.675 259.508C306.739 259.543 306.803 259.572 306.868 259.601C307.366 259.835 307.846 260.068 308.315 260.302C308.755 260.524 309.182 260.745 309.592 260.961C310.079 261.218 310.542 261.469 310.987 261.726C311.075 261.772 311.163 261.825 311.25 261.872C311.549 262.041 311.836 262.216 312.123 262.385C312.686 262.73 313.219 263.068 313.717 263.407C314.209 263.745 314.666 264.078 315.094 264.411C315.094 264.416 315.094 264.416 315.1 264.416C315.305 264.58 315.504 264.743 315.692 264.901C315.996 265.164 316.278 265.414 316.535 265.671C316.622 265.751 316.704 265.834 316.781 265.922C316.816 265.95 316.847 265.982 316.875 266.016C316.998 266.15 317.121 266.284 317.238 266.418C317.379 266.582 317.508 266.745 317.631 266.909C317.69 266.99 317.754 267.072 317.807 267.154C317.877 267.253 317.947 267.358 318.006 267.457C318.059 267.539 318.106 267.627 318.152 267.708C318.277 267.919 318.383 268.139 318.469 268.368C318.533 268.523 318.586 268.683 318.627 268.846C318.671 269.001 318.705 269.159 318.727 269.319Z" fill="black"/>
</g>
<defs>
<clipPath id="clip0_224_1007">
<rect width="461" height="334" fill="white"/>
</clipPath>
</defs>
</svg>
